<?xml version="1.0" encoding="utf-8"?>
<!-- Generator: Adobe Illustrator 16.0.0, SVG Export Plug-In . SVG Version: 6.00 Build 0)  -->
<!DOCTYPE svg PUBLIC "-//W3C//DTD SVG 1.1//EN" "http://www.w3.org/Graphics/SVG/1.1/DTD/svg11.dtd">
<svg version="1.1" xmlns="http://www.w3.org/2000/svg" xmlns:xlink="http://www.w3.org/1999/xlink" x="0px" y="0px" width="60px"
	 height="60px" viewBox="0 0 60 60" enable-background="new 0 0 60 60" xml:space="preserve">
<g id="Layer_1">
	<g>
		<path fill="#A5CEEB" d="M22.792,43.193c-2.194,0-4.258-0.538-6.074-1.491l-7.964,3.105l2.955-7.735
			c-1.272-2.018-2.004-4.404-2.004-6.966c0-7.229,5.859-13.088,13.087-13.088H36.36c7.229,0,13.088,5.858,13.088,13.088
			c0,7.228-5.858,13.087-13.088,13.087H22.792z"/>
		<path fill="#A5CEEB" d="M22.792,43.193v-2.069c-1.854-0.001-3.583-0.452-5.111-1.255l-0.835-0.438l-4.489,1.75l1.656-4.337
			l-0.552-0.876c-1.07-1.699-1.685-3.697-1.686-5.862c0.001-3.05,1.23-5.791,3.227-7.791c2-1.997,4.741-3.226,7.791-3.227H36.36
			c3.05,0.001,5.791,1.229,7.791,3.227c1.997,2,3.226,4.741,3.227,7.791c-0.001,3.049-1.229,5.79-3.227,7.79
			c-2,1.997-4.741,3.227-7.791,3.228H22.792V43.193v2.07H36.36c4.18,0.001,7.982-1.699,10.719-4.439
			c2.739-2.736,4.44-6.539,4.439-10.718c0.001-4.18-1.7-7.981-4.439-10.719c-2.736-2.739-6.539-4.44-10.719-4.438H22.792
			c-4.179-0.002-7.981,1.699-10.718,4.438c-2.74,2.737-4.44,6.539-4.439,10.719c-0.001,2.958,0.849,5.734,2.323,8.07l1.751-1.104
			l-1.934-0.738L5.153,48.433l12.317-4.802l-0.752-1.929l-0.963,1.833c2.103,1.104,4.503,1.729,7.037,1.729V43.193z"/>
	</g>
</g>
<g id="Layer_2">
	<g>
		<path fill="#3B3B3B" d="M22.792,43.193v-0.46c-2.119,0-4.108-0.519-5.86-1.438l-0.186-0.098l-7.192,2.805l2.667-6.98l-0.123-0.194
			c-1.227-1.947-1.933-4.247-1.933-6.721c0-3.489,1.413-6.643,3.698-8.93c2.286-2.286,5.44-3.698,8.929-3.698H36.36
			c3.489,0,6.643,1.412,8.93,3.698c2.286,2.287,3.698,5.44,3.698,8.93c0,3.488-1.413,6.643-3.698,8.929
			c-2.287,2.286-5.44,3.698-8.93,3.698H22.792V43.193v0.461H36.36c7.483-0.001,13.548-6.066,13.548-13.548
			c0-7.483-6.064-13.548-13.548-13.548H22.792c-7.483,0-13.547,6.064-13.547,13.548c0,2.649,0.759,5.123,2.076,7.212l0.389-0.246
			l-0.43-0.164l-3.326,8.705l8.931-3.482l-0.167-0.429l-0.214,0.407c1.879,0.987,4.019,1.545,6.288,1.545V43.193z"/>
	</g>
</g>
</svg>
