<?xml version="1.0" encoding="utf-8"?>
<!-- Generator: Adobe Illustrator 16.0.0, SVG Export Plug-In . SVG Version: 6.00 Build 0)  -->
<!DOCTYPE svg PUBLIC "-//W3C//DTD SVG 1.1//EN" "http://www.w3.org/Graphics/SVG/1.1/DTD/svg11.dtd">
<svg version="1.1" xmlns="http://www.w3.org/2000/svg" xmlns:xlink="http://www.w3.org/1999/xlink" x="0px" y="0px" width="60px"
	 height="60px" viewBox="0 0 60 60" enable-background="new 0 0 60 60" xml:space="preserve">
<g id="Layer_1">
	<g>
		<polygon fill="#A5CEEB" points="19.384,15.801 8.776,25.281 29.992,46.156 51.209,25.599 40.6,15.801 		"/>
		<polygon fill="#A5CEEB" points="19.384,15.801 18.005,14.257 5.751,25.208 29.981,49.049 54.221,25.563 41.41,13.73 18.594,13.73 
			18.005,14.257 19.384,15.801 19.384,17.871 39.79,17.871 48.197,25.635 30.003,43.264 11.802,25.354 20.763,17.344 19.384,15.801 
			19.384,17.871 		"/>
	</g>
</g>
<g id="Layer_2">
	<g>
		<polygon fill="#3B3B3B" points="19.384,15.11 19.07,14.774 8.111,25.006 29.991,46.522 51.872,25.186 40.784,14.65 19.203,14.65 
			19.07,14.774 19.384,15.11 19.384,15.571 40.416,15.571 50.546,25.194 29.994,45.234 9.441,25.023 19.698,15.447 19.384,15.11 
			19.384,15.571 		"/>
		<polyline fill="#3B3B3B" points="40.917,35.187 19.701,14.977 19.066,15.643 40.283,35.853 		"/>
		<polyline fill="#3B3B3B" points="40.283,14.977 19.066,35.187 19.701,35.853 40.917,15.643 		"/>
	</g>
</g>
</svg>
