<?xml version="1.0" encoding="utf-8"?>
<!-- Generator: Adobe Illustrator 16.0.0, SVG Export Plug-In . SVG Version: 6.00 Build 0)  -->
<!DOCTYPE svg PUBLIC "-//W3C//DTD SVG 1.1//EN" "http://www.w3.org/Graphics/SVG/1.1/DTD/svg11.dtd">
<svg version="1.1" xmlns="http://www.w3.org/2000/svg" xmlns:xlink="http://www.w3.org/1999/xlink" x="0px" y="0px" width="60px"
	 height="60px" viewBox="0 0 60 60" enable-background="new 0 0 60 60" xml:space="preserve">
<g id="Layer_1">
	<g>
		<polygon fill="#A5CEEB" points="42.189,12.29 42.189,34.369 38.97,34.369 38.97,47.71 22.683,47.71 22.705,34.369 17.81,34.369 
			17.81,12.29 		"/>
		<polygon fill="#A5CEEB" points="42.189,12.29 40.119,12.29 40.119,32.3 36.899,32.3 36.899,45.64 24.756,45.64 24.779,32.3 
			19.88,32.3 19.88,14.359 42.189,14.359 42.189,12.29 40.119,12.29 42.189,12.29 42.189,10.22 15.74,10.22 15.74,36.439 
			20.632,36.439 20.609,49.779 41.04,49.779 41.04,36.439 44.26,36.439 44.26,10.22 42.189,10.22 		"/>
	</g>
</g>
<g id="Layer_2">
	<g>
		<polygon fill="#3B3B3B" points="42.42,12.06 41.96,12.06 41.96,33.68 38.74,33.68 38.74,47.02 22.224,47.02 22.246,33.68 
			18.5,33.68 18.5,12.52 42.42,12.52 42.42,12.06 41.96,12.06 42.42,12.06 42.42,11.6 17.58,11.6 17.58,34.6 21.325,34.6 
			21.302,47.939 39.66,47.939 39.66,34.6 42.88,34.6 42.88,11.6 42.42,11.6 		"/>
	</g>
</g>
</svg>
