<?xml version="1.0" encoding="utf-8"?>
<!-- Generator: Adobe Illustrator 16.0.0, SVG Export Plug-In . SVG Version: 6.00 Build 0)  -->
<!DOCTYPE svg PUBLIC "-//W3C//DTD SVG 1.1//EN" "http://www.w3.org/Graphics/SVG/1.1/DTD/svg11.dtd">
<svg version="1.1" xmlns="http://www.w3.org/2000/svg" xmlns:xlink="http://www.w3.org/1999/xlink" x="0px" y="0px" width="60px"
	 height="60px" viewBox="0 0 60 60" enable-background="new 0 0 60 60" xml:space="preserve">
<g id="Layer_1">
	<g>
		<path fill="#A5CEEB" d="M55.127,28.661c-0.144,0.087-0.308,0.12-0.482,0.121c0.021,0.05,0.039,0.103,0.045,0.169l0.003,0.053
			c0.001,0.178-0.078,0.35-0.214,0.466c-0.133,0.12-0.316,0.18-0.511,0.178c-0.136,0-0.279-0.031-0.429-0.088l0.015,0.121
			c0,0.094-0.019,0.193-0.073,0.287c-0.063,0.104-0.145,0.154-0.227,0.189c-0.084,0.035-0.176,0.051-0.271,0.051
			c-0.162,0-0.343-0.049-0.515-0.16c-0.134-0.086-0.236-0.177-0.311-0.253c-0.053-0.053-0.088-0.092-0.11-0.115
			c-0.085-0.023-0.168-0.034-0.253-0.034c-0.226-0.003-0.46,0.068-0.716,0.114c-0.055,0.009-0.101,0.016-0.145,0.023
			c0.084,0.254,0.179,0.621,0.18,1.016c0,0.283-0.05,0.585-0.213,0.859c-0.162,0.271-0.442,0.497-0.827,0.61
			c-0.261,0.076-0.522,0.111-0.781,0.111c-1.318-0.004-2.516-0.929-2.882-2.186c-0.521-0.131-2.206-0.593-3.516-1.43
			c-0.521-0.332-0.985-0.728-1.29-1.209c-0.251-0.401-0.484-0.678-0.677-0.849c-0.544-0.511-0.212,0.601-0.212,0.601l0.386,3.624
			c0,0.157,0.03,0.461,0.062,0.813c0.032,0.358,0.064,0.771,0.064,1.181c0,0.438-0.035,0.875-0.159,1.254
			c-0.182,0.543-0.276,1.08-0.276,1.643c0,0.543,0.089,1.109,0.277,1.729c0.373,1.22,0.904,3.738,1.299,5.535
			c0.195-0.151,0.444-0.312,0.768-0.317c0.18-0.002,0.379,0.066,0.533,0.213c0.173,0.162,0.264,0.383,0.336,0.645
			c0.068,0.26,0.106,0.566,0.106,0.892c-0.002,0.477-0.08,0.994-0.276,1.461c-0.165,0.396-0.428,0.754-0.798,1.002l0.106,0.343
			c0.02,0.042,0.08,0.182,0.146,0.358c0.075,0.216,0.16,0.459,0.163,0.697c-0.002,0.057-0.005,0.162-0.024,0.228
			c-0.02,0.063-0.06,0.243-0.134,0.243l0,0c-0.078,0-0.113,0.013-0.155,0.027c0,0-0.978-0.002-1.33-0.002
			c-1.405,0-3.411-0.063-3.413-0.063l-0.168,0l-0.074-0.151c0,0-0.049-0.095-0.145-0.281c-0.097-0.185-0.24-0.455-0.427-0.792
			c-0.376-0.674-0.933-1.617-1.647-2.686c-0.623-0.936-1.398-1.987-2.145-2.87c-0.45-0.534-0.896-1.008-1.281-1.354
			c-0.251-0.227-2.429-0.078-2.429-0.078s-0.954-0.523-1.317-0.523c-0.06,0-0.113,0-0.18,0.005c-0.045,0-0.143,0.028-0.271,0.104
			c-0.132,0.07-0.285,0.185-0.458,0.332c-0.342,0.292-0.743,0.709-1.163,1.196c-0.84,0.978-1.751,2.222-2.465,3.293
			c-1.072,1.607-1.787,2.898-2.075,3.439c-0.097,0.181-0.146,0.273-0.146,0.273l-0.074,0.15l-0.166,0.005
			c-0.002,0-1.773,0.052-3.153,0.052c-0.36,0-1.434,0.251-1.577,0.221c-0.045-0.013-0.281-0.21-0.301-0.274
			c-0.019-0.066-0.023-0.267-0.023-0.324c0.004-0.237,0.087-0.558,0.162-0.773c0.067-0.185,0.13-0.365,0.146-0.404l0.106-0.362
			c-0.371-0.249-0.94-0.617-1.104-1.015c-0.926-1.153-0.238-2.107-0.171-2.367c0.073-0.261,0.317-0.483,0.489-0.645
			c0.154-0.147,0.43-0.216,0.609-0.216c0.324,0.007,0.612,0.168,0.807,0.319c0.395-1.797,0.943-4.315,1.317-5.533
			c0.188-0.621,0.287-1.188,0.287-1.73c0-0.563-0.089-1.1-0.27-1.643c-0.126-0.38-0.158-0.816-0.159-1.254
			c0-0.41,0.033-0.823,0.065-1.181c0.032-0.352,0.064-0.657,0.063-0.813c0,0,0.405-3.581,0.416-3.912
			c-0.088-0.561-0.668,0.135-0.919,0.536c-0.303,0.482-0.77,0.877-1.29,1.209c-0.521,0.334-1.102,0.608-1.645,0.823
			c-0.821,0.328-1.555,0.528-1.871,0.609c-0.368,1.256-1.563,2.181-2.882,2.185c-0.259,0-0.521-0.036-0.78-0.111
			c-0.386-0.113-0.666-0.339-0.828-0.613c-0.162-0.271-0.213-0.575-0.213-0.856c0.001-0.396,0.096-0.763,0.18-1.016
			c-0.018-0.003-0.123-0.025-0.257-0.052c-0.202-0.04-0.469-0.087-0.604-0.085c-0.085,0-0.167,0.011-0.253,0.034L8.05,29.933
			c-0.415,0.489-0.708,0.458-0.869,0.458c-0.096,0-0.271-0.143-0.271-0.143s-0.165-0.132-0.227-0.235
			c-0.056-0.094-0.073-0.216-0.073-0.309l0.015-0.132c-0.149,0.057-0.294,0.082-0.43,0.082c-0.193,0.003-0.375-0.061-0.509-0.181
			c-0.137-0.116-1.223-0.29-1.222-0.467c0,0,0.054-0.61,0.06-0.803c-0.002-0.157,0.205-0.29,0.291-0.372
			c0.087-0.084,0.247-0.14,0.346-0.185c0.197-0.093,1.587-0.98,2.463-2.361c0.732-1.141,2.172-1.926,3.765-2.423
			c1.594-0.498,3.355-0.831,4.747-1.066c0.925-0.157,1.691-0.32,2.093-0.467c0.842-0.303,1.19-0.701,1.414-1.162
			c0.222-0.461,0.288-1.037,0.446-1.659c-0.965,0.037-0.979-0.638-0.979-0.638s-0.741,0.251-1.058,0.25
			c-0.215,0-0.406-0.03-0.569-0.081s-0.296-0.116-0.404-0.213c-0.068-0.066,0.215,0.914,0.47,0.711
			c0.253-0.201,0.577-1.309,0.938-1.584c0.721-0.547,1.588-1.623,2.308-2.157c1.297-0.959,1.589-2.115,1.61-2.185
			c0.072-0.591,0.381-1.059,0.677-1.226c0.184-0.105,0.353-0.201,0.463-0.219c0.881-0.964,1.987-0.423,3.021-0.724
			c1.065-0.311,5.972-0.278,7.036,0.032c1.035,0.302,2.143,0.26,3.023,1.228c0.111,0.019,0.281,1.44,0.465,1.551
			c0.293,0.171,0.601,1.627,0.672,2.547h0.007c0.01,0,0.022-1.618,0.045-1.565c0.042,0.102,0.116-0.589,0.231-0.403
			c0.233,0.37,0.639,0.452,1.33,0.964c1.26,0.936,2.963,1.995,3.563,2.498c0.088,0.073,0.151,0.026,0.201,0.079
			c0.058,0.059,0.102,0.101,0.102,0.195c-0.006,0.157-0.085,0.222-0.152,0.288c-0.072,0.066-0.156,0.101-0.25,0.145
			c-0.191,0.082-0.437,0.127-0.721,0.127c-0.678,0.004-1.581-0.329-2.315-1.359c-0.081-0.113-0.435-0.2-0.294,0.135
			c0.216,0.511,0.438,1.094,0.568,1.601c0.159,0.619,0.225,1.192,0.447,1.653c0.223,0.458,0.574,0.844,1.414,1.147
			c0.302,0.11,0.812,0.219,1.434,0.33c0.625,0.111,1.366,0.23,2.156,0.375c1.58,0.287,3.348,0.674,4.774,1.328
			c0.953,0.438,1.762,0.996,2.247,1.759c0.572,0.9,0.93,1.449,1.154,1.782c0.192,0.29,0.294,0.412,0.32,0.44l0.203,0.167
			c0.055,0.021,0.128-0.002,0.21,0.021c0.165,0.05,0.359,0.084,0.536,0.173c0.117,0.059,0.234,0.119,0.328,0.251
			c0.053,0.076,0.089,0.169,0.089,0.275C55.393,28.397,55.273,28.575,55.127,28.661z"/>
		<path fill="#A5CEEB" d="M55.127,28.661l-1.077-1.768l0.667,1.094l-0.296-1.248c-0.103,0.024-0.24,0.074-0.371,0.154l0.667,1.094
			l-0.296-1.248l0.215,0.908l-0.007-0.935c-0.033,0-0.104,0.003-0.208,0.027l0.215,0.908l-0.007-0.935l-3.084,0.024l1.189,2.845
			l1.374-0.574l-1.479,0.142c0.018,0.204,0.086,0.389,0.105,0.433l1.374-0.574l-1.479,0.142l2.061-0.197l-2.067,0.104l0.003,0.053
			l2.067-0.105l-2.07,0.015l1.255-0.009h-1.255v0.009l1.255-0.009h-1.255h1.46L53.129,27.9c-0.318,0.279-0.502,0.654-0.507,1.108
			h1.46L53.129,27.9l-0.017,0.013l-0.015,0.014l0.929,1.037l-0.464-1.313c-0.151,0.053-0.314,0.143-0.465,0.277l0.929,1.037
			l-0.464-1.313l0.418,1.184v-1.257c-0.127,0-0.267,0.02-0.418,0.073l0.418,1.184v-1.257v1.159l0.016-1.159H53.98v1.159l0.016-1.159
			h-0.014h-0.015v0.857l0.309-0.809c-0.028-0.01-0.127-0.047-0.309-0.048v0.857l0.309-0.809L51.064,26.4l0.436,3.533l2.054-0.253
			h-2.07h1.455l-1.414-0.339c-0.032,0.132-0.041,0.248-0.041,0.339h1.455l-1.414-0.339l1.499,0.359l-1.331-0.777
			c-0.081,0.137-0.137,0.285-0.168,0.418l1.499,0.359l-1.331-0.777l0.007-0.012l1.411,0.836l-1.007-1.294
			c-0.146,0.111-0.304,0.285-0.404,0.458l1.411,0.836l-1.007-1.294l0.926,1.189l-0.605-1.383c-0.049,0.022-0.174,0.079-0.32,0.193
			l0.926,1.189l-0.605-1.383l0.83,1.896l-0.792-1.912l0.521,1.259v-1.367c-0.132,0-0.314,0.021-0.521,0.107l0.521,1.259v-1.367v1.11
			l0.604-0.94c-0.15-0.097-0.354-0.17-0.604-0.17v1.11l0.604-0.94l0.004,0.002l-0.162,0.252l0.215-0.208l-0.053-0.044l-0.162,0.252
			l0.215-0.208l-0.012-0.012l-0.011-0.011l-0.025-0.026c-0.013-0.013-0.025-0.027-0.071-0.074l-0.387-0.395l-0.532-0.149
			c-0.272-0.077-0.56-0.111-0.812-0.111v2.07l0.029-2.069l-0.044,0c-0.327,0.001-0.567,0.046-0.738,0.079
			c-0.171,0.034-0.276,0.059-0.328,0.067l0.365,2.038l-0.335-2.043c-0.045,0.007-0.09,0.014-0.15,0.024l-2.383,0.397l0.759,2.294
			c0.044,0.127,0.077,0.302,0.075,0.375v-0.009v0.01v0l0.51,0.047l-0.432-0.257c-0.066,0.111-0.079,0.204-0.078,0.209l0.51,0.047
			l-0.432-0.257l0.002-0.004l0.553,0.331l-0.189-0.644c-0.068,0.016-0.248,0.114-0.363,0.313l0.553,0.331l-0.189-0.644l0.009-0.002
			c-0.072,0.021-0.138,0.029-0.204,0.03H49.3c-0.174,0-0.374-0.065-0.549-0.199c-0.176-0.133-0.303-0.321-0.353-0.497l-0.332-1.137
			l-1.148-0.29c-0.215-0.054-0.702-0.186-1.261-0.389c-0.558-0.201-1.186-0.481-1.647-0.778l-0.012-0.008l0.011,0.007
			c-0.368-0.23-0.591-0.461-0.655-0.572l0.007,0.01c-0.333-0.527-0.659-0.944-1.062-1.303l-1.37,1.551l1.418-1.508
			c-0.126-0.117-0.266-0.239-0.492-0.375c-0.114-0.067-0.253-0.139-0.438-0.202c-0.184-0.063-0.419-0.118-0.709-0.119
			c-0.204,0-0.435,0.03-0.661,0.104c-0.402,0.126-0.762,0.395-0.978,0.657c-0.166,0.198-0.268,0.387-0.337,0.548
			c-0.102,0.242-0.137,0.426-0.16,0.576c-0.021,0.149-0.025,0.266-0.025,0.367c0.001,0.211,0.02,0.358,0.039,0.488
			c0.029,0.191,0.063,0.337,0.091,0.449c0.028,0.111,0.05,0.186,0.057,0.208l1.983-0.592l-2.059,0.219l0.386,3.624l2.059-0.219
			h-2.07c0.001,0.205,0.014,0.341,0.026,0.504c0.014,0.158,0.029,0.323,0.044,0.493l0,0c0.03,0.34,0.057,0.696,0.057,0.997V32.92
			c0.003,0.334-0.039,0.574-0.057,0.612l0.003-0.008c-0.242,0.723-0.384,1.5-0.383,2.297c0,0.771,0.129,1.552,0.368,2.333v0
			c0.076,0.247,0.173,0.607,0.275,1.021c0.312,1.251,0.683,2.997,0.98,4.353l0.702,3.197l2.588-2.005l0.02-0.014v0l-0.376-0.569
			l0.235,0.637c0.087-0.032,0.131-0.062,0.141-0.068l-0.376-0.569l0.235,0.637l-0.363-0.982l0.016,1.046
			c0.134-0.001,0.264-0.032,0.348-0.064l-0.363-0.982l0.016,1.046h-0.005l-0.019-1.414v1.414h0.019l-0.019-1.414v1.414v-1.324
			l-0.482,1.234c0.148,0.058,0.304,0.089,0.482,0.09v-1.324l-0.482,1.234l0.469-1.198l-0.885,0.934
			c0.125,0.119,0.268,0.206,0.416,0.264l0.469-1.198l-0.885,0.934l0.004,0.004l0.004,0.003l0.743-0.792l-0.979,0.482
			c0.029,0.062,0.108,0.191,0.235,0.31l0.743-0.792l-0.979,0.482l0.405-0.2l-0.426,0.152l0.021,0.048l0.405-0.2l-0.426,0.152
			l0.014,0.048l1.994-0.556l-2.002,0.524c0.017,0.06,0.039,0.205,0.039,0.367V44.51c0.001,0.258-0.052,0.522-0.115,0.665
			l-0.001,0.003l-0.003,0.006c-0.018,0.042-0.035,0.069-0.043,0.08l-0.005,0.006l0.048,0.052l-0.039-0.059l-0.009,0.007l0.048,0.052
			l-0.039-0.059l-1.279,0.858l0.604,1.955l0.063,0.134l0.863-0.409l-0.871,0.392l0.008,0.018l0.863-0.409l-0.871,0.392
			c0.001,0.002,0.045,0.105,0.083,0.21l1.941-0.72l-1.954,0.684c0.037,0.105,0.058,0.169,0.061,0.184l0.001,0.001l0.694-0.151
			l-0.708,0.011c0.001,0.086,0.012,0.13,0.014,0.141l0.694-0.151l-0.708,0.011l2.069-0.031l-2.068-0.065l-0.001,0.017l0.725,0.034
			l-0.72-0.083l-0.005,0.049l0.725,0.034l-0.72-0.083l1.559,0.181l-1.502-0.45c-0.047,0.165-0.051,0.228-0.057,0.269l1.559,0.181
			l-1.502-0.45l-0.001,0.003l-0.019,0.065l-0.002,0.008l0.356,0.101l-0.354-0.107l-0.002,0.007l0.356,0.101l-0.354-0.107l1.156,0.35
			l-1.128-0.432c-0.018,0.046-0.024,0.07-0.028,0.082l1.156,0.35l-1.128-0.432l1.644,0.629l-1.405-1.055
			c-0.177,0.244-0.207,0.356-0.238,0.426l1.644,0.629l-1.405-1.055l1.574,1.182l-1.088-1.64c-0.258,0.174-0.394,0.337-0.486,0.458
			l1.574,1.182l-1.088-1.64l1.113,1.678l-0.632-1.912c-0.192,0.064-0.354,0.149-0.481,0.234l1.113,1.678l-0.632-1.912l0.635,1.922
			v-2.023c-0.222-0.001-0.443,0.038-0.635,0.102l0.635,1.922v-2.023l0,0c-0.145-0.001-0.327,0.013-0.502,0.049
			c-0.175,0.035-0.311,0.085-0.333,0.092l0.68,1.955l0.005-2.07c-0.001,0-0.977-0.002-1.335-0.002c-0.673,0-1.517-0.015-2.185-0.031
			c-0.335-0.008-0.627-0.016-0.834-0.021c-0.104-0.003-0.187-0.006-0.243-0.008l-0.065-0.002h-0.017l-0.005,0l-0.019,0.615
			l0.02-0.614l-0.001,0l-0.019,0.615l0.02-0.614l-0.027-0.001l-0.195-0.001l-0.011,2.07l1.861-0.906l-0.074-0.151l-0.009-0.02
			l-0.01-0.018c-0.002-0.003-0.052-0.102-0.149-0.29l-0.002-0.004l-0.002-0.003c-0.101-0.193-0.253-0.481-0.45-0.837l-0.001-0.003
			l-0.002-0.003c-0.399-0.714-0.983-1.703-1.734-2.827l0.002,0.002c-0.666-0.998-1.474-2.097-2.287-3.059l0.003,0.004
			c-0.497-0.589-0.989-1.119-1.479-1.561l0.002,0.001c-0.273-0.241-0.482-0.334-0.645-0.406c-0.282-0.114-0.456-0.144-0.617-0.175
			c-0.235-0.04-0.429-0.054-0.626-0.064c-0.194-0.01-0.387-0.014-0.575-0.014c-0.747,0.001-1.469,0.052-1.493,0.053l0.141,2.065
			l0.995-1.815c-0.025-0.014-0.293-0.162-0.651-0.327c-0.181-0.083-0.382-0.171-0.62-0.254c-0.119-0.042-0.248-0.083-0.406-0.12
			c-0.161-0.036-0.344-0.075-0.635-0.078c-0.068,0-0.187,0.001-0.32,0.01l0.141,2.065v-2.07c-0.219,0.002-0.356,0.027-0.481,0.053
			c-0.183,0.04-0.324,0.09-0.462,0.147c-0.135,0.057-0.263,0.123-0.389,0.197l1.061,1.778l-0.98-1.823
			c-0.35,0.191-0.584,0.381-0.822,0.581l-0.003,0.003l0.006-0.005c-0.473,0.404-0.923,0.881-1.39,1.421v0.001
			c-0.923,1.073-1.863,2.362-2.619,3.495l0.001-0.001c-1.12,1.68-1.866,3.026-2.181,3.616l0.004-0.007
			c-0.103,0.19-0.155,0.293-0.16,0.303l-0.008,0.015l-0.082,0.165l1.854,0.921l-0.066-2.069l-0.167,0.005h0.005l0.017,0.547
			l-0.016-0.547h-0.001l0.017,0.547l-0.016-0.547c-0.048,0.001-1.78,0.052-3.092,0.051c-0.154,0-0.262,0.01-0.365,0.021
			c-0.178,0.019-0.334,0.042-0.489,0.068c-0.23,0.038-0.455,0.08-0.623,0.108c-0.084,0.015-0.152,0.025-0.187,0.03l-0.017,0.002v0
			l0.137,1.197v-1.203c-0.115,0.001-0.134,0.007-0.137,0.006l0.137,1.197v-1.203v1.909l0.39-1.868
			c-0.228-0.044-0.319-0.039-0.39-0.041v1.909l0.39-1.868l-0.423,2.026l0.563-1.992l-0.548,1.937l0.924-1.789
			c-0.072-0.034-0.157-0.083-0.376-0.148l-0.548,1.937l0.924-1.789l-0.822,1.592l1.016-1.477c-0.033-0.021-0.071-0.05-0.193-0.115
			l-0.822,1.592l1.016-1.477l-0.558,0.811l0.624-0.761c-0.008-0.006-0.016-0.014-0.066-0.05l-0.558,0.811l0.624-0.761l-0.353,0.43
			l0.396-0.39l-0.043-0.04l-0.353,0.43l0.396-0.39l-1.047,1.031l1.154-0.908c-0.06-0.075-0.088-0.103-0.107-0.123l-1.047,1.031
			l1.154-0.908l-1.456,1.145l1.58-0.966c-0.054-0.088-0.093-0.139-0.124-0.179l-1.456,1.145l1.58-0.966l-1.703,1.041l1.909-0.582
			c-0.079-0.25-0.153-0.368-0.206-0.459l-1.703,1.041l1.909-0.582l-1.98,0.604l1.99-0.572l-1.734,0.499l1.781-0.292
			c-0.008-0.04-0.016-0.094-0.047-0.207l-1.734,0.499l1.781-0.292l-1.113,0.183l1.124-0.095c-0.001-0.007-0.001-0.022-0.011-0.088
			l-1.113,0.183l1.124-0.095l-0.077,0.007l0.078-0.005l-0.001-0.002l-0.077,0.007l0.078-0.005l-0.002-0.037l-0.001-0.017V48.54
			l-0.736,0.008h0.736V48.54l-0.736,0.008h0.736h-2.069l2.069,0.036l-0.535-0.009l0.531,0.076c0,0,0.003-0.014,0.004-0.067
			l-0.535-0.009l0.531,0.076c-0.002-0.008,0.033-0.147,0.051-0.192l-1.954-0.684l1.946,0.706c0.037-0.103,0.071-0.198,0.096-0.267
			l0.026-0.076l0.003-0.006l-0.63-0.235l0.626,0.246l0.004-0.011l-0.63-0.235l0.626,0.246l-1.573-0.619l1.546,0.684l0.027-0.064
			l-1.573-0.619l1.546,0.684l0.056-0.125l0.569-1.95l-1.261-0.844c-0.195-0.13-0.372-0.251-0.463-0.327l-0.046-0.041l-0.005-0.005
			l-0.137,0.135l0.145-0.125l-0.008-0.01l-0.137,0.135l0.145-0.125l-0.76,0.659l0.922-0.382c-0.078-0.183-0.143-0.252-0.162-0.277
			l-0.76,0.659l0.922-0.382l-0.113-0.273l-0.186-0.231l-0.042-0.061l-0.003-0.004l-0.245,0.119h0.267
			c0.003-0.046-0.019-0.119-0.021-0.119l-0.245,0.119h0.267h-0.229l0.226,0.048l0.004-0.048h-0.229l0.226,0.048l0.005-0.017
			c0.008-0.021,0.022-0.057,0.053-0.127c0.017-0.035,0.036-0.08,0.065-0.15c0.029-0.073,0.07-0.163,0.124-0.361l-2.004-0.518
			l1.993,0.559l-1.246-0.349l1.112,0.666c0.037-0.063,0.091-0.165,0.134-0.316l-1.246-0.349l1.112,0.666l-0.734-0.439l0.671,0.532
			c0.013-0.016,0.034-0.044,0.063-0.093l-0.734-0.439l0.671,0.532l-0.238-0.189l0.225,0.205l0.014-0.016l-0.238-0.189l0.225,0.205
			c0.003-0.003,0.045-0.045,0.129-0.123l0.002-0.002l-0.992-1.047l0.684,1.272c0.079-0.043,0.183-0.107,0.309-0.225l-0.992-1.047
			l0.684,1.272l-0.502-0.935l0.246,1.034c0.065-0.017,0.136-0.036,0.256-0.1l-0.502-0.935l0.246,1.034l-0.25-1.047v1.074
			c0.129-0.001,0.184-0.013,0.25-0.027l-0.25-1.047v1.074v-2.07l-0.045,2.07l0.019-0.874l-0.354,0.806
			c0.056,0.024,0.165,0.063,0.335,0.068l0.019-0.874l-0.354,0.806l0.159-0.361l-0.244,0.313c0.014,0.01,0.027,0.022,0.085,0.048
			l0.159-0.361l-0.244,0.313l2.591,2.016l0.702-3.207c0.197-0.899,0.432-1.971,0.661-2.959c0.114-0.494,0.228-0.967,0.333-1.383
			c0.105-0.415,0.203-0.776,0.28-1.026l0.001-0.003v0c0.233-0.765,0.377-1.54,0.377-2.334c0.002-0.781-0.129-1.56-0.375-2.296v0
			c-0.015-0.027-0.057-0.265-0.053-0.606v0.004c-0.001-0.298,0.026-0.653,0.057-0.997v0.003c0.015-0.163,0.03-0.324,0.044-0.48
			c0.013-0.161,0.026-0.299,0.028-0.511V30.92l-2.07,0.009l2.057,0.233c0-0.002,0.102-0.898,0.205-1.839
			c0.052-0.471,0.104-0.952,0.144-1.342c0.021-0.195,0.038-0.367,0.051-0.507c0.007-0.071,0.013-0.133,0.018-0.191
			c0.004-0.061,0.009-0.105,0.012-0.195l0.007-0.197l-0.031-0.195c-0.023-0.147-0.06-0.312-0.131-0.503
			c-0.055-0.144-0.129-0.303-0.242-0.471c-0.164-0.251-0.432-0.527-0.777-0.714c-0.343-0.191-0.737-0.272-1.055-0.27
			c-0.393,0.003-0.678,0.095-0.89,0.182c-0.367,0.16-0.558,0.319-0.722,0.456c-0.238,0.208-0.396,0.391-0.539,0.568
			c-0.141,0.177-0.258,0.344-0.364,0.514l0.003-0.005c-0.057,0.102-0.28,0.334-0.65,0.566l-0.003,0.002l-0.001,0.001
			c-0.367,0.236-0.836,0.462-1.288,0.64l-0.004,0.002l-0.004,0.001c-0.697,0.279-1.353,0.459-1.616,0.526l-1.141,0.292l-0.332,1.13
			c-0.05,0.177-0.177,0.365-0.354,0.498c-0.176,0.134-0.375,0.199-0.549,0.199h0.007c-0.066,0-0.134-0.01-0.2-0.029l0.005,0.001
			l-0.19,0.646l0.557-0.331c-0.113-0.198-0.299-0.301-0.366-0.315l-0.19,0.646l0.557-0.331l-0.002-0.003l-0.001-0.002l-0.532,0.318
			l0.607-0.138c-0.008-0.036-0.029-0.104-0.075-0.18l-0.532,0.318l0.607-0.138l-0.267,0.061l0.272-0.027l-0.006-0.033l-0.267,0.061
			l0.272-0.027l-0.015,0.001h0.015v-0.001l-0.015,0.001h0.015v-0.009v0.007c-0.004-0.072,0.03-0.249,0.074-0.372l0.729-2.2
			l-2.268-0.477c-0.023-0.005-0.132-0.028-0.275-0.057l-0.005-0.001l-0.005,0c-0.115-0.022-0.252-0.049-0.404-0.072
			c-0.076-0.012-0.156-0.022-0.248-0.032c-0.093-0.009-0.191-0.019-0.339-0.019l-0.046,0l0.036,2.069v-2.07
			c-0.253,0-0.538,0.034-0.812,0.111l-1.145,0.321l-0.366,1.404l2.004,0.521l-1.579-1.339l-0.007,0.009l0.059,0.054L6.466,28.6
			l-0.002,0.003l0.059,0.054L6.466,28.6l0.656,0.665l-0.319-0.861c-0.193,0.07-0.322,0.18-0.337,0.196l0.656,0.665l-0.319-0.861
			l0.438,1.179v-1.261c-0.016-0.003-0.25,0.007-0.438,0.082l0.438,1.179v-1.261l-0.011,0l-0.049,0v1.924l0.519-1.854
			c-0.115-0.031-0.273-0.069-0.519-0.071v1.924l0.519-1.854l-0.453,1.621l0.794-1.485c-0.06-0.03-0.142-0.077-0.341-0.135
			l-0.453,1.621l0.794-1.485L7.52,29.5l0.645-0.897c-0.02-0.014-0.039-0.03-0.124-0.076L7.52,29.5l0.645-0.897l-0.628,0.875
			l0.679-0.835l-0.051-0.039l-0.628,0.875l0.679-0.835l-0.004-0.004l-0.006-0.004l-0.333,0.415l0.365-0.388l-0.032-0.027
			l-0.333,0.415l0.365-0.388l-0.56,0.595l0.607-0.545l-0.048-0.05l-0.56,0.595l0.607-0.545L7.14,29.738l1.317-0.791
			c-0.092-0.15-0.141-0.2-0.172-0.236L7.14,29.738l1.317-0.791l0.006,0.009l-1.342,0.796l1.529-0.324
			c-0.025-0.111-0.064-0.261-0.188-0.472l-1.342,0.796l1.529-0.324l-1.297,0.275h1.325c0-0.087-0.006-0.163-0.028-0.275
			l-1.297,0.275h1.325H6.609l2.056,0.237l0.016-0.132l0.392-3.391l-3.188,1.219l0.31,0.81v-0.864c-0.114,0-0.228,0.023-0.31,0.055
			l0.31,0.81v-0.864H6.18l-0.014,0l0.017,1.206v-1.207l-0.017,0l0.017,1.206v-1.207v1.333l0.881-0.987
			c-0.285-0.253-0.613-0.346-0.881-0.345v1.333l0.881-0.987l-0.015-0.014L7.033,27.9c-0.219-0.183-0.353-0.246-0.458-0.303
			c-0.193-0.094-0.298-0.126-0.397-0.16c-0.166-0.054-0.295-0.088-0.416-0.121c-0.09-0.024-0.172-0.046-0.236-0.064
			c-0.048-0.014-0.086-0.025-0.104-0.031l-0.002,0.006l0.002-0.006l0,0l-0.002,0.006l0.002-0.006l-0.402,1l0.484-0.963
			c-0.044-0.022-0.069-0.032-0.082-0.038l-0.402,1l0.484-0.963l-0.777,1.544l1.167-1.272c-0.213-0.188-0.323-0.235-0.39-0.272
			l-0.777,1.544l1.167-1.272l-1.326,1.446l1.703-0.971c-0.137-0.238-0.272-0.378-0.377-0.475l-1.326,1.446l1.703-0.971l-1.752,0.999
			h2.017c0.001-0.408-0.129-0.767-0.265-0.999l-1.752,0.999h2.017l-0.001-0.034v-0.005l-2.066,0.039l2.067-0.006l-0.001-0.033
			l-2.066,0.039l2.067-0.006l-2.069,0.006l1.985,0.581c0.087-0.302,0.083-0.515,0.084-0.587l-2.069,0.006l1.985,0.581l0.058-0.196
			l0.018-0.204c0.001-0.003,0.015-0.16,0.029-0.346c0.008-0.093,0.016-0.193,0.021-0.29c0.008-0.099,0.014-0.182,0.017-0.291
			l0.001-0.051l-0.001-0.051L4.621,28.2h1.973l-0.001-0.041L4.621,28.2h1.973H4.717l1.793,0.556
			c0.048-0.155,0.084-0.347,0.084-0.556H4.717l1.793,0.556l-1.68-0.521l1.404,1.062c0.077-0.103,0.188-0.267,0.275-0.541
			l-1.68-0.521l1.404,1.062l-0.997-0.753l0.821,0.948c0.002-0.005,0.059-0.042,0.176-0.195l-0.997-0.753l0.821,0.948l0.039-0.033
			c0.029-0.025,0.073-0.061,0.153-0.137l0.004-0.004l0.004-0.005l-1.137-1.167l0.857,1.387c0.062-0.039,0.153-0.098,0.279-0.22
			l-1.137-1.167l0.857,1.387l-0.631-1.021l0.538,1.073c0.018-0.009,0.047-0.024,0.093-0.052l-0.631-1.021l0.538,1.073l-0.258-0.514
			l0.237,0.524l0.021-0.01l-0.258-0.514l0.237,0.524c0-0.001,0.04-0.016,0.158-0.069l0.01-0.005l0.011-0.005
			c0.084-0.041,0.132-0.066,0.182-0.095c0.09-0.051,0.173-0.102,0.27-0.164c0.328-0.213,0.789-0.546,1.306-1.018
			c0.514-0.472,1.079-1.077,1.569-1.847l-0.006,0.009c0.146-0.231,0.441-0.525,0.904-0.809c0.457-0.284,1.064-0.548,1.734-0.756v0
			c1.436-0.449,3.122-0.774,4.476-1.001h0.001h0.002c0.485-0.083,0.937-0.168,1.341-0.257c0.202-0.045,0.394-0.09,0.576-0.14
			c0.184-0.05,0.357-0.102,0.542-0.169l-0.013,0.005c0.603-0.216,1.153-0.515,1.608-0.919c0.458-0.399,0.778-0.889,0.968-1.289
			l0.002-0.003l-0.001,0c0.222-0.464,0.322-0.869,0.4-1.205c0.076-0.337,0.129-0.612,0.188-0.842l0.686-2.687l-2.771,0.107
			l0.005,0.108v-0.108h-0.005l0.005,0.108v-0.108v0.88l0.37-0.78c-0.195-0.093-0.348-0.101-0.37-0.1v0.88l0.37-0.78L19.8,17.768
			l1.001-0.918c-0.117-0.13-0.273-0.244-0.418-0.312L19.8,17.768l1.001-0.918l-1.046,0.959l1.362-0.4
			c-0.046-0.155-0.136-0.361-0.316-0.559l-1.046,0.959l1.362-0.4l-1.531,0.45l1.592-0.035c-0.004-0.135-0.016-0.257-0.061-0.416
			l-1.531,0.45l1.592-0.035l-0.062-2.823l-2.673,0.908l0.011,0.032l-0.011-0.032l0,0l0.011,0.032l-0.011-0.032
			c-0.018,0.006-0.178,0.058-0.33,0.1c-0.076,0.021-0.15,0.038-0.187,0.046l-0.017,0.003h-0.002l0.146,0.936v-0.944
			c-0.116,0.001-0.142,0.009-0.146,0.008l0.146,0.936v-0.944l0,0v1.379l0.005-1.379h-0.005v1.379l0.005-1.379h-0.004h-0.004
			l-0.008,0l-0.016,0.221l0.064-0.209l-0.049-0.012l-0.016,0.221l0.064-0.209l0.008,0.002l-0.21,0.674l0.324-0.625
			c-0.066-0.034-0.107-0.047-0.114-0.049l-0.21,0.674l0.324-0.625l-0.543,1.045l0.781-0.88c-0.083-0.074-0.173-0.132-0.238-0.165
			l-0.543,1.045l0.781-0.88l-1.375,1.548l1.433-1.495c-0.09-0.084-0.207-0.189-0.418-0.31c-0.105-0.06-0.237-0.123-0.405-0.175
			c-0.167-0.052-0.375-0.093-0.614-0.093c-0.258-0.001-0.549,0.053-0.81,0.164c-0.229,0.097-0.428,0.231-0.581,0.371
			c-0.271,0.248-0.408,0.489-0.493,0.672c-0.125,0.278-0.15,0.453-0.171,0.584c-0.019,0.131-0.021,0.22-0.021,0.292
			c0.001,0.175,0.015,0.258,0.025,0.333c0.021,0.132,0.04,0.209,0.061,0.289c0.072,0.264,0.151,0.5,0.323,0.836
			c0.093,0.168,0.197,0.358,0.435,0.618c0.123,0.128,0.282,0.28,0.541,0.429c0.253,0.147,0.635,0.293,1.093,0.293
			c0.258,0,0.527-0.049,0.763-0.138c0.237-0.089,0.438-0.212,0.596-0.337l0.001,0c0.305-0.25,0.422-0.431,0.527-0.578
			c0.169-0.255,0.252-0.434,0.336-0.604c0.118-0.248,0.215-0.465,0.279-0.584l0.034-0.064l0.006-0.01v0l-0.595-0.39l0.542,0.459
			c0.037-0.044,0.05-0.065,0.053-0.069l-0.595-0.39l0.542,0.459l-1.079-0.913l0.858,1.12c0.121-0.093,0.183-0.163,0.221-0.207
			l-1.079-0.913l0.858,1.12l-0.008,0.006c0.28-0.213,0.519-0.431,0.745-0.648c0.338-0.325,0.646-0.649,0.92-0.922
			c0.269-0.271,0.512-0.492,0.625-0.574l-0.002,0.002c0.91-0.673,1.496-1.44,1.851-2.065c0.179-0.313,0.302-0.592,0.385-0.811
			c0.042-0.109,0.073-0.205,0.097-0.279l0.027-0.091l0.007-0.022l-0.612-0.176l0.611,0.179l0.001-0.003l-0.612-0.176l0.611,0.179
			l-1.715-0.5l1.707,0.525l0.008-0.025l-1.715-0.5l1.707,0.525l0.055-0.176l0.021-0.183l0.001-0.006l-0.223-0.075l0.187,0.137
			c0.034-0.048,0.035-0.06,0.036-0.062l-0.223-0.075l0.187,0.137l-0.818-0.601l0.493,0.872c0.226-0.133,0.286-0.225,0.325-0.271
			l-0.818-0.601l0.493,0.872l0.006-0.003l0.004-0.002c0.089-0.051,0.153-0.086,0.155-0.086l-0.352-0.705l0.283,0.734
			c0.052-0.02,0.068-0.029,0.068-0.029l-0.352-0.705l0.283,0.734l-0.575-1.493l0.257,1.577c0.178-0.031,0.265-0.065,0.318-0.084
			l-0.575-1.493l0.257,1.577l0.71-0.116l0.485-0.53l0.001-0.001l-0.2-0.196l0.134,0.243l0.066-0.046l-0.2-0.196l0.134,0.243
			L24.84,12.31l0.101,0.326l0.064-0.028L24.84,12.31l0.101,0.326l-0.031-0.103l0.024,0.104l0.007-0.002l-0.031-0.103l0.024,0.104
			c0,0,0.033-0.007,0.104-0.012c0.071-0.005,0.179-0.007,0.321-0.007c0.048,0,0.1,0,0.155,0c0.373-0.004,0.936,0.008,1.628-0.189
			l0.002,0l-0.153-0.523l0.135,0.528l0.019-0.005l-0.153-0.523l0.135,0.528l-0.045-0.177l0.043,0.178l0.002-0.001l-0.045-0.177
			l0.043,0.178c0-0.001,0.123-0.025,0.293-0.043c0.258-0.029,0.633-0.055,1.055-0.072c0.424-0.017,0.898-0.025,1.379-0.025
			c0.745,0,1.509,0.021,2.124,0.06c0.306,0.02,0.576,0.043,0.774,0.067c0.099,0.012,0.179,0.024,0.23,0.033l0.053,0.01l0.004,0.001
			l0.111-0.437l-0.127,0.433l0.016,0.004l0.111-0.437l-0.127,0.433h0.002c0.366,0.106,0.686,0.17,0.95,0.224
			c0.398,0.079,0.665,0.144,0.816,0.206c0.153,0.066,0.198,0.094,0.305,0.205l0.479,0.526l0.703,0.12l0.346-2.024l-0.993,1.798
			c0.169,0.093,0.388,0.182,0.647,0.227l0.346-2.024l-0.993,1.798l0.983-1.779l-1.58,1.279c0.107,0.128,0.265,0.312,0.597,0.5
			l0.983-1.779l-1.58,1.279l1.523-1.234l-1.719,0.945c0.04,0.071,0.092,0.162,0.195,0.289l1.523-1.234l-1.719,0.945l1.511-0.831
			l-1.622,0.588c0.018,0.043,0.039,0.107,0.111,0.242l1.511-0.831l-1.622,0.588l0.958-0.347l-0.978,0.285l0.02,0.063l0.958-0.347
			l-0.978,0.285l0.101-0.029l-0.102,0.027l0.001,0.002l0.101-0.029l-0.102,0.027c0.005,0.015,0.03,0.125,0.058,0.256
			c0.043,0.202,0.094,0.457,0.167,0.736c0.039,0.144,0.079,0.29,0.161,0.496c0.045,0.105,0.097,0.227,0.204,0.4
			c0.055,0.087,0.125,0.188,0.233,0.31c0.108,0.12,0.257,0.265,0.493,0.409l0.012,0.007l0.012,0.007l0.924-1.582l-1.358,1.231
			c0.086,0.093,0.211,0.219,0.435,0.351l0.924-1.582l-1.358,1.231l1.005-0.911l-1.216,0.615c0.021,0.036,0.055,0.119,0.211,0.296
			l1.005-0.911l-1.216,0.615l0.35-0.176l-0.359,0.154l0.01,0.022l0.35-0.176l-0.359,0.154c0.001,0.001,0.034,0.09,0.066,0.208
			c0.104,0.362,0.216,1.013,0.241,1.382l0.149,1.909h1.921c0.218,0,0.433-0.036,0.62-0.095c0.38-0.121,0.633-0.313,0.797-0.466
			c0.165-0.157,0.258-0.287,0.325-0.392c0.13-0.208,0.171-0.327,0.206-0.418c0.061-0.176,0.071-0.247,0.084-0.308
			c0.021-0.111,0.023-0.149,0.027-0.185c0.007-0.063,0.008-0.086,0.009-0.109c0.004-0.078,0.005-0.117,0.007-0.181
			c0.004-0.209,0.01-0.562,0.016-0.866c0.003-0.15,0.006-0.289,0.01-0.372l0.002-0.048v-0.011l-1.348-0.083l1.34,0.164
			c0.008-0.068,0.008-0.076,0.008-0.08l-1.348-0.083l1.34,0.164l-1.957-0.239l1.916,0.465c0.033-0.145,0.035-0.187,0.041-0.226
			l-1.957-0.239l1.916,0.465l-1.988-0.482l1.947,0.629c0.021-0.063,0.032-0.109,0.041-0.146l-1.988-0.482l1.947,0.629l-1.96-0.633
			l1.892,0.813c0.033-0.076,0.053-0.133,0.068-0.181l-1.96-0.633l1.892,0.813l-1.898-0.816l1.568,1.346
			c0.215-0.259,0.277-0.416,0.33-0.53l-1.898-0.816l1.568,1.346l-1.57-1.348l1.042,1.788c0.26-0.153,0.417-0.313,0.528-0.44
			l-1.57-1.348l1.042,1.788l-1.042-1.788v2.069c0.407,0.003,0.788-0.13,1.042-0.281l-1.042-1.788v2.069v-2.069l-1.049,1.784
			c0.253,0.152,0.638,0.288,1.049,0.285v-2.069l-1.049,1.784l1.049-1.784l-1.479,1.447c0.1,0.103,0.235,0.222,0.43,0.337
			l1.049-1.784l-1.479,1.447l1.478-1.446l-1.767,1.074c0.059,0.095,0.139,0.217,0.289,0.372l1.478-1.446l-1.767,1.074l1.764-1.072
			l-1.882,0.849c0.026,0.058,0.06,0.128,0.118,0.224l1.764-1.072l-1.882,0.849l1.887-0.851l-1.913,0.788
			c0.06,0.136,0.134,0.324,0.381,0.606c0.125,0.138,0.305,0.303,0.57,0.444c0.262,0.142,0.619,0.244,0.972,0.241
			c0.255,0.001,0.497-0.049,0.695-0.12c0.395-0.145,0.618-0.339,0.766-0.481c0.143-0.142,0.22-0.252,0.278-0.341
			c0.11-0.17,0.15-0.268,0.184-0.344c0.058-0.139,0.075-0.205,0.094-0.261c0.026-0.093,0.037-0.141,0.047-0.176l0.008-0.028
			l0.002-0.007l-0.756-0.22l0.742,0.261l0.014-0.042l-0.756-0.22l0.742,0.261l-1.384-0.486l1.341,0.594
			c0.023-0.053,0.035-0.085,0.043-0.108l-1.384-0.486l1.341,0.594l-1.706-0.756l1.436,1.189c0.188-0.234,0.231-0.354,0.271-0.433
			l-1.706-0.756l1.436,1.189l-1.546-1.281l1.058,1.705c0.251-0.157,0.391-0.309,0.488-0.424l-1.546-1.281l1.058,1.705l-1.073-1.729
			l0.61,1.942c0.184-0.058,0.339-0.135,0.463-0.213l-1.073-1.729l0.61,1.942l-0.612-1.95v2.044c0.217,0,0.43-0.036,0.612-0.094
			l-0.612-1.95v2.044v-2.043l-0.738,1.906c0.216,0.084,0.477,0.139,0.738,0.138v-2.043l-0.738,1.906l0.731-1.889l-1.422,1.444
			c0.146,0.142,0.364,0.318,0.69,0.445l0.731-1.889l-1.422,1.444l1.378-1.399l-1.666,1.041c0.06,0.093,0.142,0.213,0.288,0.358
			l1.378-1.399l-1.666,1.041l0.003,0.004l0.003,0.004c0.183,0.294,0.424,0.548,0.637,0.723c0.327,0.266,0.56,0.384,0.729,0.487
			c0.172,0.102,0.307,0.184,0.482,0.313l-0.002-0.001c0.687,0.51,1.446,1.02,2.104,1.464c0.327,0.222,0.63,0.426,0.872,0.596
			c0.242,0.168,0.434,0.312,0.491,0.362l-0.002-0.001c0.198,0.169,0.462,0.32,0.702,0.402c0.18,0.063,0.336,0.093,0.426,0.105
			l0.071,0.01l0.011,0.001l0.047-0.395l-0.048,0.395l0.001,0l0.047-0.395l-0.048,0.395l0.229-1.879L42.404,19.3
			c0.25,0.087,0.394,0.094,0.409,0.098l0.229-1.879L42.404,19.3l0.669-1.868l-1.075,1.667c0.139,0.09,0.283,0.157,0.406,0.201
			l0.669-1.868l-1.075,1.667l1.074-1.666l-1.45,1.352c0.104,0.113,0.235,0.224,0.376,0.314l1.074-1.666l-1.45,1.352l0.022,0.024
			l0.022,0.022l0.01,0.01l0.069-0.068l-0.069,0.068l0,0l0.069-0.068l-0.069,0.068l1.089-1.065l-1.179,0.963
			c0.052,0.064,0.083,0.095,0.09,0.102l1.089-1.065l-1.179,0.963l1.435-1.172l-1.728,0.668c0.089,0.231,0.216,0.412,0.293,0.504
			l1.435-1.172l-1.728,0.668l1.73-0.67h-1.856c-0.002,0.184,0.035,0.44,0.126,0.67l1.73-0.67h-1.856h1.771l-1.771-0.004v0.004h1.771
			l-1.771-0.004v0.022l2.07-0.016l-2.069-0.065l1.693,0.053l-1.614-0.51c-0.053,0.162-0.076,0.325-0.079,0.457l1.693,0.053
			l-1.614-0.51l1.666,0.526l-1.351-1.11c-0.098,0.115-0.241,0.337-0.315,0.583l1.666,0.526l-1.351-1.11l1.163,0.956l-1.063-1.067
			c-0.016,0.016-0.052,0.052-0.1,0.111l1.163,0.956l-1.063-1.067l0.631,0.633l-0.624-0.64l-0.007,0.007l0.631,0.633l-0.624-0.64
			l0.037,0.038l-0.036-0.038H41.67l0.037,0.038l-0.036-0.038l-0.028,0.027l1.443,1.483l-1.396-1.528l1.008,1.103l-0.706-1.318
			c-0.055,0.029-0.177,0.101-0.302,0.215l1.008,1.103l-0.706-1.318l0.479,0.893l-0.448-0.909l-0.03,0.016l0.479,0.893l-0.448-0.909
			l0.21,0.425l-0.202-0.429l-0.008,0.004l0.21,0.425l-0.202-0.429l-0.058,0.026L42.836,18l-0.811-1.905l0.219,0.513l-0.1-0.551
			c-0.013,0.003-0.051,0.01-0.119,0.039l0.219,0.513l-0.1-0.551l0.021,0.109l-0.015-0.11l-0.006,0l0.021,0.109l-0.015-0.11
			l-0.035,0.001h-0.007h-0.007v0.027v-0.027l0,0v0.027v-0.027l0,0l-0.041-0.007c-0.043-0.011-0.111-0.035-0.207-0.102
			c-0.096-0.067-0.222-0.178-0.368-0.382l-0.002-0.003l-0.002-0.003c-0.173-0.237-0.332-0.375-0.477-0.486
			c-0.218-0.161-0.411-0.258-0.627-0.337c-0.218-0.076-0.454-0.138-0.795-0.141c-0.175,0-0.38,0.019-0.621,0.088
			c-0.18,0.052-0.381,0.136-0.581,0.267c-0.303,0.193-0.593,0.511-0.758,0.858c-0.169,0.347-0.221,0.691-0.22,0.96
			c0.005,0.437,0.106,0.716,0.196,0.938l-0.001-0.001c0.194,0.457,0.387,0.978,0.472,1.314l-0.001-0.004
			c0.06,0.227,0.111,0.5,0.188,0.835c0.079,0.334,0.179,0.74,0.401,1.204l0.001,0.003l0.002,0.003
			c0.192,0.406,0.521,0.895,0.979,1.288c0.456,0.397,1,0.687,1.595,0.9l-0.01-0.003c0.296,0.107,0.56,0.173,0.852,0.24
			c0.289,0.065,0.599,0.125,0.928,0.184l0.002,0l0,0c0.652,0.116,1.384,0.233,2.146,0.373l0.003,0l0.001,0
			c0.762,0.138,1.549,0.297,2.289,0.492c0.739,0.193,1.432,0.424,1.992,0.681l-0.003-0.001c0.376,0.172,0.688,0.354,0.913,0.526
			c0.229,0.173,0.367,0.33,0.452,0.463c0.578,0.908,0.94,1.466,1.185,1.828l-0.007-0.01c0.115,0.172,0.21,0.306,0.29,0.413
			c0.041,0.054,0.077,0.101,0.113,0.144c0.036,0.045,0.066,0.081,0.119,0.138l0.096,0.104l0.313,0.258l0.26,0.214l0.314,0.12
			c0.233,0.089,0.426,0.119,0.56,0.134c0.135,0.014,0.217,0.013,0.258,0.013l0.029,0h0.004l-0.003-0.508v0.508h0.003l-0.003-0.508
			v0.508v-1.694l-0.462,1.627c0.256,0.072,0.441,0.066,0.462,0.067v-1.694l-0.462,1.627l0.565-1.991l-0.604,1.98
			c0.174,0.052,0.27,0.073,0.301,0.083l0.012,0.003l0.214-0.675l-0.317,0.63c0.066,0.034,0.104,0.044,0.104,0.045l0.214-0.675
			l-0.317,0.63l0.007,0.004l0.007,0.003l0.02,0.009l0.163-0.319l-0.171,0.315l0.008,0.004l0.163-0.319l-0.171,0.315l0.578-1.064
			l-0.759,0.942c0.089,0.071,0.159,0.11,0.181,0.122l0.578-1.064l-0.759,0.942l0.902-1.121l-1.169,0.839
			c0.076,0.108,0.178,0.212,0.267,0.282l0.902-1.121l-1.169,0.839l1.682-1.206l-1.706,1.171l1.28-0.879l-1.471,0.499
			c0.053,0.153,0.121,0.278,0.19,0.38l1.28-0.879l-1.471,0.499l1.521-0.516h-1.605c-0.001,0.183,0.032,0.363,0.084,0.516
			l1.521-0.516h-1.605v0.023v0.022l1.594-0.035h-1.594v0.035l1.594-0.035h-1.594h1.569l-1.341-0.823
			c-0.126,0.207-0.228,0.479-0.229,0.823h1.569l-1.341-0.823l1.31,0.804l-0.773-1.325c-0.247,0.148-0.404,0.313-0.536,0.521
			l1.31,0.804l-0.773-1.325l-0.017,0.01l-0.017,0.01L55.127,28.661l1.044,1.788c0.392-0.232,0.679-0.525,0.905-0.888
			c0.221-0.361,0.381-0.813,0.382-1.343l-0.001-0.057l-2.069,0.046h2.07c0-0.29-0.052-0.569-0.135-0.814
			c-0.083-0.245-0.195-0.456-0.317-0.633l-0.012-0.017l-0.013-0.018c-0.194-0.274-0.444-0.501-0.653-0.645
			c-0.21-0.146-0.371-0.22-0.44-0.256l0.014,0.007c-0.266-0.133-0.487-0.2-0.637-0.243c-0.075-0.021-0.134-0.037-0.173-0.047
			l-0.043-0.012l-0.009-0.002l-0.001,0l-0.02-0.006L55,25.517c-0.328-0.093-0.584-0.09-0.669-0.091h-0.028h-0.002v1.688l0.178-1.678
			c-0.109-0.011-0.165-0.009-0.178-0.01v1.688l0.178-1.678l-0.203,1.919l0.69-1.801c-0.21-0.08-0.38-0.106-0.487-0.118l-0.203,1.919
			l0.69-1.801l-0.741,1.933l1.316-1.598l-0.204-0.167l-1.315,1.598l1.521-1.403l-0.902,0.833l0.953-0.774
			c-0.004-0.005-0.011-0.015-0.051-0.058l-0.902,0.833l0.953-0.774v0c-0.01-0.012-0.068-0.089-0.17-0.242l-0.003-0.003l-0.004-0.006
			c-0.205-0.303-0.557-0.844-1.124-1.735c-0.4-0.63-0.908-1.134-1.443-1.54c-0.538-0.407-1.107-0.723-1.685-0.989l-0.003-0.001
			c-0.867-0.396-1.771-0.687-2.667-0.922c-0.896-0.235-1.782-0.413-2.6-0.561l0.003,0c-0.816-0.149-1.567-0.27-2.166-0.377l0.002,0
			c-0.293-0.052-0.55-0.103-0.746-0.147c-0.193-0.043-0.336-0.086-0.341-0.09l-0.005-0.001l-0.004-0.001
			c-0.122-0.044-0.199-0.081-0.24-0.104l-0.045-0.028l-0.069,0.089l0.079-0.079l-0.01-0.01l-0.069,0.089l0.079-0.079l-0.162,0.162
			l0.189-0.129l-0.027-0.032l-0.162,0.162l0.189-0.129l-0.088,0.06l0.09-0.056l-0.002-0.004l-0.088,0.06l0.09-0.056l-0.011-0.02
			l0.003,0.006c0,0-0.012-0.025-0.028-0.081c-0.058-0.166-0.131-0.598-0.277-1.187v-0.003l-0.001-0.001
			c-0.177-0.676-0.428-1.32-0.664-1.886l-0.001-0.001l-1.594,0.673h1.724c-0.005-0.369-0.087-0.561-0.13-0.673l-1.594,0.673h1.724
			h-1.946l1.796,0.75c0.117-0.282,0.15-0.546,0.15-0.75h-1.946l1.796,0.75l-1.833-0.765l1.442,1.365
			c0.167-0.176,0.303-0.389,0.391-0.6l-1.833-0.765l1.442,1.365l-1.438-1.36l0.636,1.875c0.248-0.083,0.551-0.248,0.802-0.515
			l-1.438-1.36l0.636,1.875l-0.617-1.819v1.922c0.162-0.001,0.366-0.018,0.617-0.103l-0.617-1.819v1.922v-1.816l-0.444,1.762
			c0.118,0.029,0.257,0.053,0.444,0.054v-1.816l-0.444,1.762l0.424-1.679l-0.886,1.488c0.152,0.089,0.285,0.145,0.462,0.191
			l0.424-1.679l-0.886,1.488l0.921-1.548l-1.169,1.371c0.092,0.078,0.173,0.132,0.248,0.178l0.921-1.548l-1.169,1.371l1.235-1.448
			l-1.545,1.11c0.114,0.159,0.219,0.259,0.31,0.338l1.235-1.448l-1.545,1.11l-0.005-0.006c0.534,0.751,1.189,1.322,1.887,1.69
			c0.697,0.37,1.421,0.537,2.101,0.537h0.027h-0.014c0.506-0.002,1.012-0.074,1.529-0.292l0.027-0.012l0.027-0.012
			c0.025-0.013,0.105-0.046,0.246-0.12c0.139-0.074,0.34-0.197,0.537-0.377l0.024-0.022l0.022-0.023l-0.042-0.043l0.042,0.044v0
			l-0.042-0.043l0.042,0.044c0.005-0.01,0.196-0.164,0.406-0.489c0.104-0.161,0.201-0.364,0.267-0.578
			c0.065-0.215,0.099-0.437,0.104-0.64l0.002-0.04l-0.001-0.041l-1.919,0.014l1.919,0.004v-0.018l-1.919,0.014l1.919,0.004v-0.006
			c0.001-0.186-0.023-0.405-0.085-0.622c-0.09-0.329-0.266-0.619-0.396-0.781c-0.133-0.167-0.209-0.233-0.221-0.248l-1.469,1.458
			l1.514-1.411c-0.133-0.144-0.303-0.282-0.479-0.386c-0.154-0.091-0.309-0.155-0.438-0.197c-0.229-0.072-0.371-0.084-0.416-0.091
			l-0.018-0.002l0,0l-0.219,1.804l0.6-1.714c-0.203-0.07-0.363-0.087-0.381-0.09l-0.219,1.804l0.6-1.714l-0.618,1.767l1.204-1.434
			c-0.155-0.134-0.382-0.264-0.586-0.333l-0.618,1.767l1.204-1.434l-0.002-0.001c-0.242-0.202-0.488-0.378-0.775-0.58
			c-0.426-0.298-0.924-0.63-1.433-0.976c-0.507-0.343-1.021-0.698-1.451-1.017l-0.002-0.001c-0.455-0.338-0.847-0.551-0.999-0.645
			l-0.063-0.04l-0.001,0l-0.408,0.585l0.498-0.508c-0.053-0.051-0.089-0.076-0.09-0.078l-0.408,0.585l0.498-0.508l-0.781,0.797
			l0.944-0.595c-0.048-0.076-0.111-0.152-0.163-0.202l-0.781,0.797l0.944-0.595l0.005,0.008c-0.094-0.146-0.225-0.337-0.499-0.557
			c-0.138-0.108-0.316-0.22-0.54-0.307c-0.222-0.087-0.489-0.142-0.756-0.141c-0.228-0.001-0.45,0.038-0.641,0.1
			c-0.374,0.122-0.62,0.308-0.783,0.456c-0.154,0.143-0.246,0.264-0.316,0.363c-0.127,0.188-0.18,0.31-0.224,0.408
			c-0.071,0.169-0.099,0.27-0.124,0.354c-0.018,0.061-0.03,0.108-0.039,0.143l-0.013,0.049v0l1.075,0.302l-1.063-0.342l-0.012,0.04
			l1.075,0.302l-1.063-0.342l1.595,0.512l-1.564-0.598c-0.016,0.042-0.023,0.067-0.03,0.086l1.595,0.512l-1.564-0.598l1.767,0.676
			l-1.712-0.803c-0.026,0.056-0.042,0.096-0.055,0.127l1.767,0.676l-1.712-0.803l1.823,0.855l-1.551-1.284
			c-0.181,0.225-0.229,0.343-0.272,0.429l1.823,0.855l-1.551-1.284l1.583,1.311l-1.11-1.729c-0.245,0.161-0.378,0.307-0.473,0.418
			l1.583,1.311l-1.11-1.729l1.114,1.736l-0.648-1.958c-0.189,0.063-0.343,0.144-0.466,0.222l1.114,1.736l-0.648-1.958l0.649,1.96
			v-2.065c-0.235,0-0.461,0.042-0.649,0.105l0.649,1.96v-2.065v2.065l0.966-1.825c-0.26-0.141-0.616-0.243-0.966-0.24v2.065
			l0.966-1.825l-0.964,1.82l1.684-1.188c-0.124-0.17-0.322-0.417-0.72-0.632l-0.964,1.82l1.684-1.188l-1.665,1.175l1.884-0.776
			c-0.041-0.097-0.097-0.222-0.219-0.398l-1.665,1.175l1.884-0.776l-0.013-0.031l-0.014-0.031c-0.052-0.103-0.108-0.247-0.318-0.499
			c-0.107-0.124-0.262-0.282-0.521-0.436c-0.253-0.153-0.638-0.289-1.05-0.286c-0.392-0.003-0.761,0.12-1.014,0.265
			c-0.256,0.145-0.416,0.3-0.53,0.426c-0.222,0.256-0.288,0.416-0.346,0.533c-0.051,0.115-0.075,0.191-0.095,0.253
			c-0.034,0.118-0.045,0.18-0.055,0.229c-0.017,0.093-0.02,0.135-0.024,0.173c-0.007,0.068-0.009,0.104-0.011,0.143
			c-0.008,0.133-0.011,0.266-0.015,0.431c-0.006,0.243-0.01,0.529-0.015,0.752c-0.002,0.111-0.004,0.208-0.005,0.266l-0.001,0.035
			v0.011l1.231,0.049l-1.229-0.09l-0.002,0.041l1.231,0.049l-1.229-0.09l1.956,0.143l-1.942-0.272
			c-0.011,0.084-0.012,0.107-0.014,0.129l1.956,0.143l-1.942-0.272l2.036,0.285l-1.982-0.544c-0.042,0.16-0.046,0.211-0.054,0.259
			l2.036,0.285l-1.982-0.544l1.993,0.547l-1.941-0.707c-0.025,0.068-0.04,0.118-0.052,0.16l1.993,0.547l-1.941-0.707l1.943,0.708
			l-1.676-1.213c-0.184,0.263-0.226,0.4-0.268,0.505l1.943,0.708l-1.676-1.213l1.677,1.213l-1.18-1.701
			c-0.264,0.186-0.401,0.357-0.497,0.487l1.677,1.213l-1.18-1.701l1.18,1.701l-0.679-1.955c-0.203,0.07-0.369,0.163-0.501,0.254
			l1.18,1.701l-0.679-1.955l0.679,1.956v-2.07c-0.241,0-0.479,0.044-0.679,0.115l0.679,1.956v-2.07H37.76v2.07l2.064-0.161
			c-0.049-0.6-0.154-1.257-0.307-1.885c-0.078-0.316-0.163-0.617-0.294-0.94c-0.067-0.164-0.144-0.334-0.276-0.545
			c-0.066-0.106-0.148-0.223-0.271-0.359c-0.123-0.134-0.285-0.291-0.545-0.444l-1.044,1.788l1.066-1.774l-1.022,1.701l1.43-1.377
			c-0.093-0.095-0.218-0.209-0.407-0.324l-1.022,1.701l1.43-1.377l-1.332,1.283l1.621-0.893c-0.048-0.083-0.114-0.204-0.289-0.39
			l-1.332,1.283l1.621-0.893l-1.049,0.578l1.141-0.376c-0.005-0.01-0.01-0.049-0.092-0.202l-1.049,0.578l1.141-0.376v-0.001
			c-0.005-0.016-0.031-0.113-0.057-0.229c-0.04-0.18-0.084-0.402-0.138-0.632c-0.028-0.12-0.054-0.234-0.116-0.417
			c-0.036-0.097-0.069-0.206-0.188-0.417c-0.063-0.107-0.146-0.245-0.333-0.44c-0.096-0.096-0.222-0.208-0.405-0.32
			c-0.182-0.111-0.43-0.224-0.733-0.275l-0.35,2.041l1.531-1.394c-0.37-0.408-0.795-0.733-1.217-0.969
			c-0.635-0.355-1.237-0.513-1.706-0.619c-0.473-0.104-0.827-0.165-1.053-0.233l0.001,0c-0.174-0.05-0.322-0.081-0.475-0.109
			c-0.262-0.046-0.527-0.078-0.819-0.106c-0.866-0.081-1.954-0.118-3.036-0.118c-0.741,0-1.471,0.018-2.111,0.058
			c-0.321,0.02-0.62,0.045-0.9,0.08c-0.141,0.018-0.277,0.037-0.415,0.062c-0.139,0.026-0.278,0.055-0.439,0.102h0.001
			c-0.002,0-0.033,0.009-0.111,0.016c-0.076,0.006-0.197,0.009-0.359,0.009c-0.049,0-0.1,0-0.155,0
			c-0.343,0.003-0.841-0.008-1.469,0.152c-0.312,0.081-0.65,0.211-0.976,0.403c-0.326,0.191-0.636,0.443-0.9,0.734l1.528,1.396
			l-0.334-2.043c-0.232,0.039-0.382,0.093-0.503,0.138c-0.18,0.07-0.297,0.132-0.4,0.186c-0.102,0.055-0.184,0.102-0.254,0.142
			l0.01-0.006c-0.299,0.17-0.522,0.365-0.714,0.567c-0.284,0.305-0.495,0.637-0.662,1.003c-0.165,0.366-0.283,0.769-0.337,1.207
			l2.055,0.25l-1.979-0.609l-0.014,0.048l-0.007,0.022c-0.01,0.03-0.061,0.177-0.188,0.375c-0.128,0.198-0.326,0.442-0.654,0.686
			l-0.002,0.002l0,0c-0.286,0.213-0.527,0.431-0.757,0.648c-0.342,0.325-0.651,0.651-0.928,0.929
			c-0.272,0.275-0.519,0.503-0.642,0.593l-0.004,0.003l-0.004,0.003c-0.25,0.193-0.396,0.369-0.516,0.521
			c-0.203,0.268-0.318,0.484-0.422,0.681c-0.149,0.292-0.259,0.543-0.331,0.69l-0.041,0.082l-0.008,0.014l-0.001,0.003l0.737,0.428
			l-0.682-0.51c-0.043,0.058-0.054,0.08-0.056,0.082l0.737,0.428l-0.682-0.51l1.324,0.989l-1.025-1.293
			c-0.185,0.149-0.254,0.246-0.299,0.304l1.324,0.989l-1.025-1.293v-0.001l1.203,1.518l-0.679-1.813
			c-0.213,0.079-0.39,0.188-0.524,0.295l1.203,1.518l-0.679-1.813l0.689,1.842v-1.967c-0.232-0.001-0.479,0.045-0.689,0.125
			l0.689,1.842v-1.967v1.956l0.664-1.84c-0.183-0.066-0.413-0.116-0.664-0.116v1.956l0.664-1.84l-0.632,1.75l1.284-1.352
			c-0.119-0.109-0.306-0.27-0.652-0.399l-0.632,1.75l1.284-1.352l-0.977,1.028l1.244-0.692c-0.03-0.046-0.066-0.137-0.268-0.336
			l-0.977,1.028l1.244-0.692l-0.432,0.24l0.456-0.192l-0.024-0.048l-0.432,0.24l0.456-0.192l-0.001-0.003l-0.012,0.004l0.012-0.003
			V17.39l-0.012,0.004l0.012-0.003l-0.689,0.212l0.704-0.158l-0.015-0.054l-0.689,0.212l0.704-0.158l-1.474,0.332l1.492-0.23
			c-0.008-0.052-0.015-0.08-0.019-0.101l-1.474,0.332l1.492-0.23l-1.877,0.29h1.898c-0.002-0.168-0.014-0.235-0.021-0.29
			l-1.877,0.29h1.898h-2.019l2.005,0.231c0.012-0.101,0.014-0.173,0.014-0.231h-2.019l2.005,0.231l-2.033-0.234l1.978,0.528
			c0.033-0.124,0.047-0.217,0.056-0.294l-2.033-0.234l1.978,0.528l-1.988-0.531l1.864,0.872c0.063-0.137,0.1-0.248,0.124-0.341
			l-1.988-0.531l1.864,0.872l-1.87-0.875l1.28,1.62c0.333-0.267,0.495-0.545,0.59-0.746l-1.87-0.875l1.28,1.62l-1.281-1.622
			l0.683,1.951c0.226-0.078,0.434-0.198,0.599-0.329l-1.281-1.622l0.683,1.951l-0.683-1.951v2.067
			c0.216,0.001,0.456-0.036,0.683-0.116l-0.683-1.951v2.067v-2.065l-0.613,1.973c0.167,0.052,0.374,0.093,0.613,0.093v-2.065
			l-0.613,1.973l0.611-1.969l-1.154,1.709c0.125,0.083,0.291,0.181,0.543,0.26l0.611-1.969l-1.154,1.709l1.148-1.701l-1.42,1.481
			c0.065,0.062,0.148,0.135,0.271,0.219l1.148-1.701l-1.42,1.481l0.028,0.027l0.029,0.026c0.192,0.17,0.402,0.309,0.602,0.413
			c0.2,0.104,0.389,0.175,0.56,0.229l0.004,0.001l0.004,0.001c0.375,0.115,0.769,0.172,1.18,0.173h-0.008h0.011
			c0.175-0.001,0.3-0.015,0.414-0.029c0.196-0.027,0.353-0.062,0.499-0.097c0.431-0.104,0.775-0.225,0.808-0.234l-0.666-1.96
			l-2.069,0.045c0.003,0.12,0.016,0.31,0.079,0.564c0.049,0.19,0.128,0.418,0.267,0.667c0.203,0.37,0.572,0.783,1.061,1.05
			c0.486,0.272,1.043,0.386,1.567,0.383c0.052,0,0.104-0.001,0.155-0.003l-0.08-2.068l-2.006-0.511
			c-0.099,0.393-0.159,0.716-0.211,0.938c-0.025,0.111-0.048,0.196-0.065,0.252c-0.017,0.056-0.029,0.082-0.029,0.082l0.002-0.003
			l-0.014,0.026l-0.001,0.001l0.146,0.093l-0.127-0.117l-0.019,0.023l0.146,0.093l-0.127-0.117l0.109,0.1l-0.095-0.114l-0.015,0.014
			l0.109,0.1l-0.095-0.114l-0.009,0.006c-0.022,0.016-0.099,0.061-0.263,0.12l-0.006,0.002l-0.006,0.003
			c-0.017,0.006-0.09,0.03-0.191,0.057c-0.313,0.085-0.879,0.202-1.535,0.313l0.003,0c-1.429,0.243-3.266,0.586-5.02,1.132h0.001
			c-0.924,0.289-1.832,0.666-2.675,1.184c-0.839,0.519-1.628,1.188-2.216,2.097L5.879,24.17l-0.004,0.005
			c-0.277,0.443-0.703,0.882-1.072,1.19c-0.183,0.155-0.351,0.279-0.469,0.359c-0.059,0.04-0.104,0.07-0.128,0.083l-0.012,0.007
			l-0.001,0l0.596,1.044l-0.514-1.086c-0.066,0.032-0.076,0.039-0.082,0.042l0.596,1.044l-0.514-1.086l0.885,1.872l-0.863-1.881
			l0.282,0.615L4.306,25.76l-0.009,0.004l0.282,0.615L4.306,25.76l-0.015,0.006c-0.041,0.018-0.141,0.057-0.288,0.132
			c-0.147,0.08-0.353,0.183-0.632,0.449l0.008-0.008l0.864,0.897l-0.809-0.948l-0.056,0.051l0.864,0.897l-0.809-0.948
			c0,0-0.037,0.031-0.099,0.084c-0.093,0.084-0.242,0.209-0.432,0.465c-0.094,0.13-0.198,0.296-0.289,0.522
			c-0.09,0.224-0.162,0.515-0.162,0.841l0.001,0.045l2.069-0.043l-2.069-0.058L2.65,28.15l-0.196-0.008v0.002L2.65,28.15
			l-0.196-0.008c0,0.008-0.004,0.073-0.009,0.145c-0.008,0.109-0.02,0.247-0.027,0.354c-0.009,0.106-0.016,0.182-0.016,0.182
			l2.062,0.183l-1.986-0.582c-0.071,0.245-0.08,0.435-0.083,0.532c-0.001,0.05,0,0.079,0,0.087v0.002l2.067-0.039H2.395v0.039
			l2.067-0.039H2.395c-0.001,0.271,0.054,0.528,0.133,0.738c0.157,0.411,0.367,0.644,0.523,0.798
			c0.15,0.145,0.272,0.228,0.375,0.293c0.19,0.118,0.319,0.173,0.434,0.221c0.197,0.079,0.346,0.123,0.485,0.165
			c0.204,0.059,0.384,0.105,0.483,0.133l0.052,0.015l0.006,0.002l0.291-0.892l-0.372,0.86c0.065,0.028,0.081,0.031,0.081,0.032
			l0.291-0.892l-0.372,0.86l0.666-1.541l-0.815,1.466c0.07,0.04,0.116,0.06,0.149,0.074l0.666-1.541l-0.815,1.466l0.935-1.682
			l-1.252,1.46c0.147,0.125,0.245,0.181,0.317,0.222l0.935-1.682l-1.252,1.46l1.348-1.571l-1.379,1.544
			c0.548,0.489,1.229,0.708,1.876,0.707l0.04,0l-0.028-2.07v2.07c0.387,0,0.79-0.072,1.169-0.219l-0.739-1.933l-2.056-0.238
			l-0.016,0.132l-0.014,0.119v0.12c0,0.179,0.015,0.363,0.061,0.583c0.049,0.219,0.125,0.477,0.303,0.782l0.003,0.005l0.003,0.004
			c0.123,0.202,0.216,0.308,0.295,0.397c0.117,0.13,0.205,0.209,0.273,0.271c0.068,0.061,0.116,0.099,0.136,0.115l-0.009-0.008
			c0.037,0.03,0.125,0.103,0.29,0.21c0.086,0.054,0.189,0.118,0.358,0.194c0.086,0.038,0.188,0.08,0.332,0.12
			c0.144,0.039,0.327,0.081,0.597,0.083v-0.279L7.178,32.46h0.003v-0.279L7.178,32.46l0.063,0c0.092,0,0.271-0.003,0.481-0.038
			c0.319-0.05,0.705-0.183,1.035-0.389c0.335-0.206,0.621-0.467,0.871-0.762l0.306-0.361l0.186-0.711l-2.004-0.521l0.56,1.993
			l-0.307-1.093v1.136c0.084,0.001,0.203-0.013,0.307-0.043l-0.307-1.093v1.136h0.019h0.018l-0.026-1.523v1.523h0.026l-0.026-1.523
			v1.523v-0.891l-0.093,0.887c0,0,0.014,0.003,0.093,0.004v-0.891l-0.093,0.887c0.013,0,0.169,0.025,0.288,0.05l-0.009-0.002
			c0.125,0.025,0.227,0.046,0.237,0.049l0.427-2.026L7.264,29.13c-0.125,0.384-0.279,0.942-0.285,1.66v0.001v0.006
			c0,0.264,0.023,0.563,0.097,0.889c0.073,0.326,0.201,0.682,0.409,1.029L7.48,32.71c0.439,0.747,1.186,1.301,2.024,1.543h0.003
			l0.003,0.001c0.451,0.132,0.909,0.194,1.359,0.194h0.004h0.003c1.145-0.005,2.201-0.403,3.046-1.047
			c0.844-0.645,1.498-1.546,1.816-2.625l-1.987-0.583l0.515,2.005c0.367-0.094,1.18-0.315,2.124-0.692l-0.008,0.003
			c0.635-0.252,1.325-0.573,2.001-1.005l-0.003,0.002c0.672-0.433,1.381-0.993,1.929-1.853l0.003-0.004V28.65l0.125-0.167
			l0.001-0.001l-0.607-0.587l0.47,0.697c0.117-0.081,0.135-0.108,0.138-0.109l-0.607-0.587l0.47,0.697l-0.887-1.317l0.588,1.474
			c0.15-0.061,0.238-0.116,0.299-0.156l-0.887-1.317l0.588,1.474l-0.686-1.72v1.85c0.317-0.001,0.537-0.072,0.686-0.129l-0.686-1.72
			v1.85v-1.942l-0.83,1.755c0.281,0.135,0.586,0.188,0.83,0.187v-1.942l-0.83,1.755l0.83-1.756l-1.375,1.373
			c0.145,0.146,0.334,0.284,0.545,0.383l0.83-1.756l-1.375,1.373l1.32-1.318l-1.725,0.714c0.067,0.163,0.186,0.383,0.404,0.604
			l1.32-1.318l-1.725,0.714l1.482-0.614l-1.588,0.25c0.014,0.081,0.037,0.199,0.105,0.364l1.482-0.614l-1.588,0.25l2.045-0.323
			l-2.068-0.07l0.826,0.028l-0.825-0.055l-0.001,0.026l0.826,0.028l-0.825-0.055c-0.001,0.016-0.01,0.12-0.022,0.25
			c-0.045,0.469-0.143,1.359-0.227,2.121c-0.084,0.764-0.156,1.403-0.156,1.404l-0.014,0.121v0.121l0,0h0.639l-0.639-0.014v0.014
			h0.639l-0.639-0.014l0.042,0.001l-0.042-0.002v0.001l0.042,0.001l-0.042-0.002c0,0.014-0.006,0.102-0.016,0.214
			c-0.011,0.114-0.024,0.258-0.039,0.418v0.003c-0.033,0.372-0.073,0.844-0.074,1.365v0.006v-0.001
			c0.006,0.535,0.026,1.169,0.265,1.902v0c0.115,0.35,0.163,0.644,0.164,0.99c0,0.292-0.052,0.65-0.197,1.127l0.001-0.004
			c-0.109,0.359-0.22,0.77-0.336,1.226c-0.344,1.36-0.728,3.123-1.023,4.472l2.021,0.443l1.271-1.633
			c-0.208-0.162-0.464-0.33-0.795-0.476c-0.329-0.144-0.744-0.268-1.237-0.279l-0.022,0h-0.023
			c-0.348,0.003-0.625,0.052-0.947,0.152c-0.159,0.052-0.326,0.118-0.507,0.215c-0.181,0.098-0.376,0.225-0.579,0.417l0.002-0.002
			c-0.072,0.07-0.238,0.217-0.438,0.451c-0.101,0.118-0.211,0.262-0.321,0.446s-0.222,0.411-0.301,0.692l-0.006,0.021l-0.005,0.021
			l1.466,0.379l-1.402-0.574c-0.006,0.016-0.026,0.057-0.063,0.195l1.466,0.379l-1.402-0.574l0.388,0.159l-0.386-0.164l-0.002,0.005
			l0.388,0.159l-0.386-0.164c0,0.001-0.033,0.072-0.076,0.171c-0.129,0.305-0.363,0.893-0.364,1.673
			c-0.001,0.398,0.065,0.842,0.223,1.281c0.155,0.439,0.399,0.868,0.713,1.257l1.614-1.296l-1.913,0.792
			c0.161,0.385,0.36,0.648,0.542,0.86c0.277,0.314,0.537,0.521,0.766,0.693c0.227,0.17,0.428,0.301,0.558,0.389l1.152-1.72
			l-1.987-0.581l-0.105,0.362l1.986,0.581l-1.894-0.836c-0.027,0.063-0.036,0.087-0.046,0.113c-0.031,0.079-0.049,0.132-0.075,0.205
			c-0.024,0.069-0.052,0.146-0.077,0.218l-0.005,0.011l-0.003,0.011c-0.064,0.186-0.123,0.383-0.175,0.609
			c-0.05,0.229-0.096,0.473-0.104,0.813v0.018v0.018c0,0.084,0.002,0.159,0.009,0.275c0.003,0.058,0.007,0.12,0.016,0.202
			c0.005,0.042,0.011,0.089,0.021,0.151c0.012,0.063,0.023,0.138,0.061,0.267l0.004,0.017l0.005,0.015
			c0.066,0.212,0.133,0.335,0.187,0.432c0.102,0.176,0.171,0.259,0.229,0.331c0.101,0.119,0.168,0.185,0.233,0.248
			c0.097,0.091,0.179,0.161,0.276,0.237c0.05,0.039,0.101,0.077,0.18,0.13c0.042,0.027,0.09,0.058,0.167,0.101
			c0.04,0.021,0.087,0.046,0.153,0.076c0.068,0.029,0.152,0.066,0.292,0.106l0.069,0.02l0.071,0.015
			c0.244,0.048,0.357,0.044,0.456,0.046c0.189-0.001,0.277-0.015,0.372-0.025c0.156-0.02,0.288-0.042,0.428-0.066
			c0.205-0.036,0.417-0.075,0.584-0.103c0.083-0.013,0.153-0.023,0.194-0.028l0.03-0.003l-0.064-0.828v0.83
			c0.046,0,0.062-0.002,0.064-0.002l-0.064-0.828v0.83c1.427,0,3.202-0.053,3.214-0.054h0.003l0.17-0.005l1.236-0.04l0.624-1.257
			l-1.854-0.922l1.84,0.951v-0.001c0.006-0.012,0.049-0.095,0.129-0.244l0.002-0.003l0.002-0.004
			c0.263-0.493,0.946-1.729,1.971-3.263l0.001-0.001c0.671-1.01,1.552-2.21,2.311-3.09l-0.001,0.001
			c0.372-0.434,0.726-0.792,0.938-0.971l0.003-0.003l-0.001,0.001c0.056-0.047,0.098-0.081,0.119-0.096l0.011-0.008l0.001-0.001
			l-0.279-0.427l0.241,0.449l0.038-0.022l-0.279-0.427l0.241,0.449l0.041-0.021l0.039-0.023l-0.567-0.951l0.373,1.04
			c0.1-0.036,0.155-0.066,0.194-0.089l-0.567-0.951l0.373,1.04l-0.533-1.489l0.334,1.546c0.088-0.019,0.148-0.038,0.199-0.057
			l-0.533-1.489l0.334,1.546l-0.395-1.821v1.863c0.196-0.002,0.306-0.023,0.395-0.042l-0.395-1.821v1.863h0.07l0.07-0.005v-0.013
			v0.013l0,0v-0.013v0.013l0.039,0v-1.363l-0.313,1.33c0.039,0.007,0.112,0.03,0.313,0.033v-1.363l-0.313,1.33l0.113-0.478
			l-0.139,0.471l0.025,0.006l0.113-0.478l-0.139,0.471l0.007,0.002c0.055,0.016,0.255,0.102,0.402,0.176
			c0.076,0.037,0.144,0.072,0.189,0.097l0.052,0.027l0.011,0.006h0.001l0.539-0.986l-0.541,0.985l0.002,0.001l0.539-0.986
			l-0.541,0.985l0.531,0.292l0.605-0.041l0.022-0.002c0.119-0.008,0.703-0.042,1.189-0.041c0.208-0.001,0.403,0.007,0.479,0.016
			l0.021,0.002l0.005,0.001l0.142-0.943l-0.282,0.909c0.105,0.032,0.136,0.033,0.141,0.035l0.142-0.943l-0.282,0.909l0.49-1.581
			l-0.724,1.488c0.107,0.052,0.181,0.076,0.233,0.093l0.49-1.581l-0.724,1.488l0.829-1.707l-1.27,1.408
			c0.188,0.167,0.333,0.245,0.44,0.298l0.829-1.707l-1.27,1.408l0.004,0.004l-0.003-0.002c0.281,0.251,0.68,0.67,1.082,1.149
			l0.002,0.002l0.002,0.002c0.68,0.802,1.422,1.808,2.002,2.68l0.002,0.003c0.678,1.014,1.207,1.912,1.561,2.545l-0.003-0.006
			c0.177,0.319,0.312,0.573,0.403,0.749l-0.004-0.007c0.047,0.091,0.083,0.16,0.106,0.205s0.033,0.066,0.033,0.066l1.843-0.943
			l-1.861,0.906l0.074,0.151l0.563,1.157l1.455,0.008l0.012-2.07l-0.066,2.069c0.014,0,2.019,0.064,3.479,0.064
			c0.347,0,1.324,0.002,1.325,0.002l0.353,0.001l0.333-0.116l0.001,0l-0.533-1.548l0.303,1.608c0.119-0.022,0.226-0.058,0.23-0.06
			l-0.533-1.548l0.303,1.608l-0.296-1.574v1.603c0.063,0,0.176-0.006,0.296-0.029l-0.296-1.574v1.603l0,0
			c0.216,0,0.432-0.034,0.621-0.093c0.36-0.111,0.617-0.291,0.79-0.445c0.153-0.137,0.253-0.26,0.327-0.364
			c0.129-0.183,0.19-0.313,0.238-0.418c0.067-0.156,0.098-0.257,0.12-0.329l0.022-0.078l0.003-0.012l-1.085-0.305l1.08,0.321
			l0.005-0.017l-1.085-0.305l1.08,0.321l-0.001,0.003c0.043-0.144,0.061-0.244,0.074-0.328c0.02-0.124,0.025-0.211,0.03-0.281
			c0.004-0.069,0.006-0.122,0.007-0.146l0.001-0.049v-0.048c-0.007-0.354-0.066-0.633-0.123-0.854
			c-0.059-0.221-0.119-0.386-0.156-0.496l-0.007-0.018l-0.007-0.018c-0.043-0.116-0.082-0.217-0.117-0.301
			c-0.018-0.042-0.033-0.08-0.049-0.115c-0.016-0.036-0.027-0.064-0.049-0.109l-1.871,0.885l1.978-0.61l-0.105-0.344l-1.979,0.611
			l1.154,1.719c0.38-0.255,0.699-0.564,0.955-0.894c0.257-0.33,0.452-0.68,0.6-1.033l-0.005,0.009
			c0.332-0.793,0.436-1.563,0.44-2.258v-0.004v-0.004c-0.001-0.488-0.055-0.955-0.175-1.417l-0.004-0.015L46,43.07
			c-0.056-0.199-0.131-0.439-0.268-0.719c-0.137-0.278-0.347-0.599-0.646-0.879l0.008,0.007c-0.277-0.263-0.594-0.458-0.922-0.585
			c-0.329-0.129-0.671-0.195-1.027-0.195h-0.035h-0.001h-0.004c-0.499,0.006-0.947,0.142-1.278,0.299
			c-0.335,0.158-0.569,0.332-0.726,0.451l1.269,1.637l2.021-0.444c-0.195-0.891-0.428-1.974-0.66-2.998
			c-0.117-0.512-0.232-1.009-0.346-1.465c-0.114-0.457-0.224-0.87-0.334-1.233l-0.008-0.025l0.008,0.025
			c-0.139-0.455-0.188-0.808-0.188-1.123c0.001-0.329,0.05-0.625,0.17-0.988l0.001-0.003l0.001-0.006
			c0.232-0.722,0.259-1.353,0.264-1.896v-0.005c0-0.519-0.04-0.99-0.072-1.365l0,0c-0.018-0.183-0.032-0.345-0.042-0.467
			c-0.005-0.061-0.009-0.11-0.011-0.143l-0.002-0.032v-0.001l-0.6,0.013h0.6v-0.013l-0.6,0.013h0.6v-0.11l-0.417-3.923l-0.054-0.183
			l-0.766,0.228l0.768-0.219l-0.002-0.009l-0.766,0.228l0.768-0.219l-0.02-0.082l-0.004-0.018l-0.001-0.002l-0.876,0.131h0.884
			c-0.001-0.102-0.008-0.125-0.008-0.131l-0.876,0.131h0.884h-1.573l1.556,0.229c0.016-0.108,0.018-0.178,0.018-0.229h-1.573
			l1.556,0.229l-1.801-0.265l1.722,0.591c0.047-0.139,0.067-0.244,0.079-0.326l-1.801-0.265l1.722,0.591l-1.827-0.627l1.652,0.999
			c0.087-0.143,0.139-0.268,0.175-0.372l-1.827-0.627l1.652,0.999l-1.702-1.029l1.03,1.701c0.325-0.196,0.546-0.46,0.672-0.672
			l-1.702-1.029l1.03,1.701l-1.035-1.709v1.999c0.313,0.004,0.714-0.09,1.035-0.29l-1.035-1.709v1.999v-1.944l-0.628,1.84
			c0.153,0.052,0.361,0.103,0.628,0.104v-1.944l-0.628,1.84l0.564-1.655l-1,1.438c0.081,0.055,0.204,0.137,0.436,0.218l0.564-1.655
			l-1,1.438l0.666-0.958l-0.801,0.852c0.018,0.016,0.055,0.05,0.135,0.106l0.666-0.958l-0.801,0.852l0.023,0.021l0.024,0.021v0
			c0.021,0.018,0.144,0.153,0.292,0.394l0.004,0.006l0.003,0.005c0.546,0.852,1.252,1.413,1.926,1.847l-0.001,0
			c0.849,0.539,1.718,0.908,2.46,1.18c0.741,0.27,1.356,0.435,1.663,0.512l0.507-2.007l-1.987,0.58
			c0.317,1.081,0.972,1.984,1.815,2.629c0.844,0.644,1.901,1.043,3.046,1.048h0.003h0.005c0.45,0,0.909-0.063,1.357-0.193
			l0.004-0.001l0.005-0.001c0.839-0.244,1.579-0.793,2.019-1.535l0.004-0.006l-0.001,0.003c0.206-0.346,0.334-0.702,0.407-1.028
			c0.074-0.328,0.097-0.627,0.097-0.89v-0.006v-0.004c-0.007-0.717-0.161-1.274-0.284-1.655l-1.966,0.649l0.341,2.042
			c0.026-0.004,0.074-0.012,0.139-0.022l0.015-0.002l0.016-0.003c0.197-0.036,0.333-0.068,0.395-0.08l0.032-0.006l0.004,0
			l-0.095-0.686v0.691c0.059,0,0.091-0.005,0.095-0.005l-0.095-0.686v0.691V30.68l-0.015,1.035h0.015V30.68l-0.015,1.035h0.014
			h0.016v-1.133l-0.306,1.09c0.104,0.03,0.224,0.044,0.306,0.043v-1.133l-0.306,1.09l0.559-1.993l-1.478,1.449l0.788-0.773
			l-0.799,0.762l0.011,0.011l0.788-0.773l-0.799,0.762l0.168-0.16l-0.169,0.16h0.001l0.168-0.16l-0.169,0.16
			c0.005,0.004,0.063,0.068,0.137,0.141l1.463-1.464l-1.485,1.441c0.167,0.172,0.387,0.366,0.672,0.551l0.003,0.002h0.001
			c0.496,0.318,1.061,0.488,1.635,0.489c0.321,0,0.688-0.053,1.063-0.208l0.019-0.008l0.019-0.009
			c0.132-0.058,0.338-0.157,0.563-0.332c0.224-0.171,0.453-0.422,0.614-0.698l0.006-0.008l0.002-0.005
			c0.136-0.23,0.229-0.476,0.283-0.704c0.055-0.229,0.073-0.441,0.073-0.626v-0.127l-0.03-0.246l-2.055,0.253l-0.738,1.934
			c0.328,0.124,0.715,0.223,1.167,0.224v-2.07l-0.027,2.07h0.04c0.316,0,0.641-0.05,0.961-0.163c0.32-0.113,0.638-0.291,0.918-0.542
			l-1.381-1.542l1.351,1.569c0.585-0.509,0.928-1.225,0.933-2.029v-0.021v-0.046l-0.005-0.098l-0.003-0.046l-0.004-0.047
			c-0.03-0.334-0.135-0.627-0.196-0.77l-1.909,0.799l0.016,2.07c0.208-0.002,0.448-0.021,0.714-0.084
			c0.265-0.062,0.556-0.171,0.83-0.339L55.127,28.661l1.044,1.788L55.127,28.661z"/>
	</g>
</g>
<g id="Layer_2">
	<g>
		<path fill="#3B3B3B" d="M55.194,29.137l-0.239-0.393c-0.041,0.025-0.096,0.043-0.181,0.051l-0.183,0.016l-0.195,0.22l-0.149,0.167
			l0.052,0.285l0.002,0.028l0.459-0.031H54.3v0.003l-0.056,0.115l-0.003,0.003l-0.004,0.003c-0.033,0.03-0.098,0.061-0.192,0.061
			h-0.006h-0.002h-0.003c-0.053,0-0.12-0.01-0.202-0.036l-0.301-0.096l-0.27,0.335l-0.103,0.126v0.162l-0.011,0.057l0.398,0.23
			l-0.395-0.238v0.001l0.023,0.018l-0.018-0.024l-0.006,0.006l0.023,0.018l-0.018-0.024l-0.023,0.012l0.004-0.002
			c-0.016,0.007-0.045,0.014-0.091,0.014c-0.071,0-0.164-0.021-0.266-0.086l0.001,0.001c-0.101-0.065-0.178-0.134-0.23-0.188
			l-0.002-0.002v-0.001c-0.049-0.049-0.08-0.083-0.104-0.108l-0.088-0.094l-0.124-0.034c-0.125-0.035-0.252-0.051-0.376-0.051v0.46
			l0.005-0.46h-0.016c-0.318,0.003-0.566,0.085-0.787,0.122l0.082,0.453l-0.07-0.455c-0.059,0.009-0.107,0.017-0.15,0.024
			l-0.53,0.088l0.17,0.511c0.074,0.223,0.155,0.549,0.155,0.873v-0.002c0,0.234-0.04,0.446-0.147,0.625L50.57,31.9
			c-0.102,0.167-0.28,0.321-0.565,0.407l0.001-0.001C49.79,32.37,49.571,32.4,49.354,32.4h0.002
			c-1.104,0.001-2.141-0.797-2.445-1.857l-0.073-0.252l-0.255-0.065c-0.5-0.125-2.158-0.586-3.386-1.374l0,0
			c-0.487-0.311-0.899-0.669-1.149-1.069v0.001c-0.27-0.429-0.522-0.737-0.762-0.95l-0.305,0.345l0.309-0.34
			c-0.16-0.147-0.313-0.237-0.445-0.286l-0.697-0.26l0.55,5.165l0.457-0.049h-0.46c0.001,0.207,0.033,0.502,0.064,0.856v0
			c0.031,0.353,0.063,0.754,0.063,1.141v-0.001c0,0.416-0.036,0.81-0.137,1.114l0.002-0.003c-0.197,0.584-0.303,1.175-0.302,1.791
			c0,0.595,0.099,1.21,0.298,1.865h0.001c0.18,0.587,0.405,1.519,0.633,2.521c0.228,1.004,0.459,2.083,0.656,2.984l0.155,0.708
			l0.574-0.441c0.086-0.066,0.17-0.123,0.252-0.161s0.158-0.059,0.244-0.06h0.004c0.059-0.001,0.146,0.027,0.205,0.086v0
			l0.003,0.001c0.076,0.07,0.144,0.198,0.207,0.431l-0.001-0.004c0.058,0.216,0.092,0.487,0.092,0.776v-0.002
			c-0.001,0.428-0.074,0.891-0.241,1.288l-0.002,0.005l0.002-0.005c-0.138,0.328-0.348,0.609-0.63,0.799l-0.284,0.19l0.215,0.695
			l0.011,0.025c0.018,0.04,0.074,0.168,0.135,0.333l0.432-0.159l-0.434,0.153c0.076,0.211,0.138,0.416,0.137,0.552l0.461-0.007
			l-0.46-0.015c-0.001,0.039-0.003,0.129-0.006,0.224c-0.002,0.046-0.004,0.092-0.007,0.125l-0.003,0.032v0.001l0.272,0.04
			l-0.264-0.078l-0.009,0.038l0.272,0.04l-0.264-0.078v-0.001l0.344,0.103l-0.292-0.21c-0.007,0.012-0.024,0.026-0.052,0.107
			l0.344,0.103l-0.292-0.21l0.113,0.082l-0.108-0.088l-0.005,0.007l0.113,0.082l-0.108-0.088l-0.007,0.008l-0.093,0.085
			l-0.037,0.029l-0.002,0.001l0.11,0.161l-0.099-0.168l-0.012,0.007l0.11,0.161l-0.099-0.168l0.199,0.337l-0.139-0.366l-0.061,0.029
			l0.199,0.337l-0.139-0.366l0.162,0.43l0.057-0.457c-0.002,0-0.249-0.03-0.543-0.061c-0.297-0.03-0.626-0.062-0.846-0.063
			c-0.69,0-1.54-0.03-2.215-0.06c-0.337-0.015-0.631-0.031-0.84-0.042c-0.105-0.006-0.188-0.011-0.246-0.014l-0.065-0.004
			l-0.017-0.001l-0.006,0l-0.002,0H38.47h-0.003h-0.021v0.46l0.082-0.453l-0.168-0.03l-0.083,0.453l0.421-0.188l-0.074-0.166
			L38.62,48.98l-0.003-0.006c-0.001-0.004-0.053-0.111-0.151-0.301c-0.097-0.187-0.243-0.466-0.435-0.809
			c-0.381-0.685-0.944-1.641-1.669-2.725l0.001,0.001c-0.633-0.95-1.416-2.014-2.178-2.915v0.001
			c-0.381-0.452-0.759-0.863-1.108-1.2c-0.353-0.337-0.666-0.599-0.967-0.764l0.003,0.001c-0.089-0.048-0.172-0.084-0.25-0.11
			c-0.081-0.025-0.148-0.044-0.255-0.045v0.46l0.034-0.459c-0.085-0.006-0.16-0.007-0.22-0.007
			c-0.396,0.001-0.853,0.046-1.323,0.065c-0.045,0.002-0.09,0.003-0.137,0.003c-0.383,0.001-0.777-0.065-1.162-0.068
			c-0.059,0-0.129,0-0.214,0.007l0.034,0.458v-0.46c-0.113,0.002-0.18,0.024-0.261,0.051c-0.078,0.028-0.159,0.066-0.246,0.118
			l0.233,0.396l-0.22-0.404c-0.177,0.097-0.349,0.227-0.536,0.387l0.001-0.001c-0.372,0.317-0.784,0.749-1.215,1.247
			c-0.86,0.999-1.778,2.255-2.502,3.343v-0.001c-1.084,1.625-1.807,2.929-2.102,3.483l0.001-0.001
			c-0.098,0.183-0.147,0.279-0.148,0.282l-0.002,0.002l-0.075,0.151l0.411,0.206l-0.014-0.459l-0.168,0.005l0.015,0.46v-0.46h-0.012
			c-0.011,0-1.775,0.054-3.146,0.054c-0.127,0.001-0.259,0.016-0.411,0.036c-0.225,0.03-0.481,0.073-0.701,0.108
			c-0.11,0.018-0.21,0.033-0.29,0.044c-0.077,0.011-0.139,0.015-0.14,0.014v0.282l0.057-0.275c-0.044-0.008-0.054-0.006-0.057-0.007
			v0.282l0.057-0.275l-0.093,0.451l0.125-0.443l-0.098,0.347l0.192-0.307c-0.009-0.003-0.008-0.013-0.095-0.041l-0.098,0.347
			l0.192-0.307l-0.045,0.071l0.047-0.07l-0.002-0.001l-0.045,0.071l0.047-0.07l-0.1-0.082l-0.039-0.039l-0.009,0.008l0.009-0.008
			l0,0l-0.009,0.008l0.009-0.008l-0.263,0.21l0.318-0.099c-0.035-0.1-0.053-0.103-0.056-0.111l-0.263,0.21l0.318-0.099l-0.439,0.136
			l0.443-0.124l-0.177,0.05l0.181-0.03l-0.004-0.02l-0.177,0.05l0.181-0.03c-0.001-0.005-0.006-0.057-0.008-0.102
			c-0.002-0.045-0.003-0.093-0.003-0.106h-0.46l0.46,0.007c-0.002-0.144,0.07-0.443,0.136-0.623l-0.001,0.004
			c0.034-0.094,0.067-0.186,0.093-0.258l0.033-0.091l0.01-0.027l0.003-0.007l-0.036-0.014l0.035,0.015l0.001-0.001l-0.036-0.014
			l0.035,0.015l0.01-0.024l0.114-0.385l0.096-0.324l-0.28-0.188c-0.264-0.177-0.439-0.45-0.589-0.81v0l-0.001-0.001
			c-0.158-0.373-0.198-0.84-0.196-1.294v-0.002v-0.003c0-0.045,0-0.09,0-0.133c-0.002-0.271,0.008-0.499,0.048-0.646l-0.446-0.114
			l0.443,0.123c0.035-0.126,0.066-0.226,0.097-0.295c0.032-0.07,0.06-0.107,0.092-0.139l0.001,0
			c0.071-0.067,0.143-0.089,0.206-0.089v-0.46l-0.012,0.46c0.089,0.002,0.162,0.023,0.244,0.062c0.08,0.038,0.163,0.095,0.25,0.162
			l0.575,0.444l0.155-0.709c0.197-0.901,0.428-1.98,0.655-2.984c0.227-1.002,0.452-1.934,0.632-2.519l0.001-0.004l-0.001,0.003
			c0.201-0.659,0.297-1.274,0.297-1.868c0-0.615-0.104-1.206-0.299-1.79v0c-0.103-0.303-0.139-0.696-0.139-1.112v0.001
			c0-0.387,0.031-0.788,0.063-1.141v0c0.03-0.346,0.063-0.636,0.064-0.847v-0.012l-0.46,0.002l0.457,0.049l0.551-5.166l-0.698,0.261
			c-0.131,0.049-0.283,0.138-0.446,0.287l0.31,0.34l-0.304-0.345c-0.241,0.213-0.494,0.522-0.763,0.951v0
			c-0.249,0.398-0.662,0.757-1.149,1.068l-0.001,0c-0.487,0.312-1.044,0.576-1.567,0.783l-0.001,0
			c-0.795,0.317-1.513,0.513-1.816,0.59l-0.254,0.065l-0.073,0.251c-0.307,1.061-1.343,1.858-2.446,1.857h0.001
			c-0.216,0-0.436-0.03-0.651-0.093l0.001,0c-0.285-0.086-0.462-0.239-0.563-0.408l-0.001-0.001l-0.001,0
			c-0.104-0.175-0.146-0.393-0.146-0.622v0.001c0-0.323,0.08-0.648,0.155-0.872l0.169-0.504l-0.523-0.094l0,0
			c-0.028-0.005-0.129-0.027-0.25-0.051l0,0c-0.104-0.021-0.225-0.043-0.342-0.061c-0.119-0.018-0.229-0.033-0.345-0.033H8.376
			l0.006,0.46v-0.46c-0.129-0.001-0.286,0.039-0.429,0.142c-0.142,0.103-0.252,0.259-0.321,0.445v0l0.163,0.061l-0.132-0.118
			L7.632,30.25l0.163,0.061l-0.132-0.118l-0.004,0.004c-0.025,0.027-0.154,0.104-0.274,0.148c-0.06,0.023-0.119,0.043-0.162,0.054
			L7.176,30.41l-0.004,0l0.021,0.191v-0.192L7.172,30.41l0.021,0.191v-0.192v0.253l0.104-0.235
			c-0.002,0.001-0.016-0.015-0.104-0.018v0.253l0.104-0.235l-0.052-0.033l-0.028-0.021l-0.006-0.005l-0.027,0.034l0.027-0.034v0
			l-0.027,0.034l0.027-0.034l-0.001,0v-0.001l-0.058,0.07l0.058-0.07v0l-0.058,0.07l0.058-0.07l-0.07-0.062l-0.043-0.045
			l-0.011-0.013v0L6.997,30.31l0.093-0.055l-0.004-0.006L6.997,30.31l0.093-0.055v0l-0.047,0.027l0.049-0.022L7.09,30.254
			l-0.047,0.027l0.049-0.022L7.09,30.253l-0.009-0.072h-0.46l0.458,0.034l0.004-0.048l0.018-0.233l-0.245-0.208l-0.192-0.165
			l-0.242,0.075c-0.078,0.024-0.149,0.034-0.216,0.034H6.203H6.2H6.195c-0.088,0-0.155-0.029-0.195-0.065l-0.002-0.001l-0.002-0.002
			l-0.252,0.292l0.364-0.129c-0.018-0.05-0.056-0.115-0.112-0.163l-0.252,0.292l0.364-0.129l-0.311,0.11h0.33
			c-0.001-0.022-0.002-0.059-0.02-0.11l-0.311,0.11h0.33H5.944l0.181,0.036l0.003-0.036H5.944l0.181,0.036l-0.002,0l0.002,0l0,0
			l-0.002,0l0.002,0c0.002-0.01,0.023-0.069,0.055-0.13c0.03-0.063,0.066-0.13,0.1-0.192l0,0c0.039-0.073,0.064-0.165,0.064-0.256
			c-0.001-0.181-0.088-0.317-0.172-0.395c-0.042-0.041-0.088-0.072-0.139-0.098c-0.051-0.024-0.107-0.045-0.188-0.054l0,0
			c-0.082-0.007-0.17-0.019-0.234-0.031l-0.073-0.018l-0.01-0.003l-0.061,0.143l0.081-0.132l-0.021-0.011l-0.061,0.143l0.081-0.132
			l-0.004-0.002L5.541,28.74c-0.051-0.029-0.124-0.081-0.161-0.118L5.359,28.6l-0.004-0.006l-0.142,0.089h0.161
			c0-0.061-0.02-0.089-0.02-0.089l-0.142,0.089h0.161H5.066l0.309,0.012v-0.012H5.066l0.309,0.012v-0.011v-0.011v-0.013
			c0-0.057,0.006-0.092,0.006-0.094l-0.087-0.021l0.079,0.041l0.008-0.02l-0.087-0.021l0.079,0.041l-0.168-0.088l0.132,0.136
			l0.036-0.048l-0.168-0.088l0.132,0.136l-0.001,0.002c0.083-0.079,0.09-0.082,0.122-0.099l0.003-0.001l0.004-0.002l-0.039-0.081
			l0.016,0.09l0.023-0.009l-0.039-0.081l0.016,0.09l0.028-0.002c0.061-0.002,0.181,0.021,0.352,0.024
			c0.066,0,0.146-0.004,0.24-0.032l-0.132-0.44l0.125,0.442c0.16-0.051,0.218-0.114,0.278-0.165
			c0.083-0.078,0.142-0.153,0.191-0.217l0.06-0.081l0.017-0.024l0.004-0.005l-0.18-0.133L6.6,28.05l0.005-0.006l-0.18-0.133
			L6.6,28.05l0.002-0.002l0.002-0.002c0.102-0.133,0.231-0.331,0.455-0.679c0.222-0.347,0.532-0.838,0.971-1.529L8.027,25.84
			c0.314-0.491,0.798-0.909,1.405-1.265c0.607-0.355,1.335-0.646,2.11-0.888l0,0c1.555-0.485,3.3-0.776,4.692-1.011h0.001
			c0.464-0.079,0.891-0.155,1.258-0.23c0.369-0.077,0.674-0.15,0.916-0.238l-0.001,0c0.46-0.166,0.813-0.365,1.087-0.604
			c0.273-0.238,0.457-0.512,0.586-0.783l0,0c0.268-0.567,0.326-1.156,0.479-1.741l-0.001,0.002c0.135-0.52,0.384-1.16,0.615-1.695
			c0.23-0.537,0.443-0.97,0.509-1.104l0.035-0.071l0.01-0.086l0.011-0.088l-0.057-0.209l-0.225-0.841l-0.568,0.66
			c-0.171,0.2-0.385,0.507-0.661,0.98l0.001,0c-0.699,1.188-1.556,1.489-2.142,1.495h-0.011h-0.002h-0.001
			c-0.103,0-0.237,0.009-0.392,0.009c-0.141,0-0.291-0.01-0.37-0.028l-0.041-0.011l-0.005-0.001l-0.06,0.139l0.102-0.109
			l-0.042-0.03l-0.06,0.139l0.102-0.109l-0.204,0.219l0.289-0.074c-0.017-0.065-0.057-0.12-0.085-0.145l-0.204,0.219l0.289-0.074
			v0.001l-0.353,0.09h0.364l-0.012-0.09l-0.353,0.09h0.364h-0.268l0.253,0.093c0.003-0.01,0.014-0.036,0.015-0.093h-0.268
			l0.253,0.093l-0.053-0.02l0.051,0.024l0.002-0.005l-0.053-0.02l0.051,0.024c0.003-0.014,0.084-0.13,0.198-0.251
			c0.344-0.378,0.984-0.915,1.201-1.081l-0.002,0.002c0.739-0.562,1.606-1.31,2.307-1.83l0,0c0.696-0.516,1.135-1.049,1.399-1.47
			c0.134-0.21,0.224-0.393,0.283-0.53c0.03-0.069,0.052-0.127,0.067-0.172c0.016-0.043,0.026-0.079,0.027-0.084L22.885,13
			l0.005-0.042c0.054-0.455,0.29-0.712,0.446-0.799l0.001,0l0.001-0.001c0.136-0.079,0.269-0.118,0.306-0.122l0.16-0.025l0.109-0.12
			c0.391-0.427,0.825-0.699,1.3-0.908s0.99-0.348,1.514-0.5h0.001h-0.001c0.299-0.087,0.596-0.118,0.887-0.118
			c0.297,0,0.588,0.033,0.863,0.068c0.277,0.035,0.537,0.075,0.797,0.076c0.34,0,1.354,0,1.693,0
			c0.239-0.001,0.482-0.031,0.742-0.058c0.259-0.027,0.533-0.053,0.814-0.053c0.322,0,0.654,0.033,0.99,0.131l0.001,0
			c0.511,0.147,1.021,0.311,1.497,0.545s0.921,0.537,1.317,0.972l0.107,0.117l0.156,0.026c0.042,0.007,0.08,0.009,0.111,0.009
			c0.081,0,0.13-0.01,0.164-0.014l0.058-0.006h0.001l0.007-0.069l-0.035,0.06l0.028,0.01l0.007-0.069l-0.035,0.06l0.002,0.001
			l0.002,0.001c0.074,0.042,0.186,0.143,0.272,0.271c0.089,0.129,0.155,0.285,0.179,0.436l0.061,0.389h0.4v-0.458l-0.261,0.377
			c0.053,0.037,0.146,0.081,0.261,0.081v-0.458l-0.261,0.377l0.258-0.373l-0.397,0.22c0.02,0.028,0.036,0.077,0.14,0.153
			l0.258-0.373l-0.397,0.22l0.359-0.199l-0.393,0.121c0.004,0.011,0.005,0.024,0.033,0.078l0.359-0.199l-0.393,0.121l0.196-0.061
			l-0.2,0.05l0.004,0.011l0.196-0.061l-0.2,0.05l0.015,0.061c0.009,0.034,0.017,0.072,0.041,0.135l0.001,0.003l0.002,0.003
			c0.045,0.106,0.129,0.305,0.265,0.523l0.001,0.001v0.001c0.26,0.412,0.706,0.972,1.446,1.521l0,0
			c0.63,0.467,1.37,1.02,2.027,1.518c0.656,0.497,1.233,0.943,1.52,1.183l-0.001-0.001c0.078,0.067,0.129,0.115,0.159,0.147
			l0.005,0.005l0.005,0.005l0.077-0.076h-0.107c0.007,0.054,0.001,0.038,0.03,0.076l0.077-0.076h-0.107v0.003h0.46l-0.46-0.016
			l0.027,0.001l-0.025-0.008l-0.002,0.007l0.027,0.001l-0.025-0.008l0.047,0.014l-0.041-0.028l-0.006,0.015l0.047,0.014
			l-0.041-0.028l-0.021,0.023l0.321,0.329l-0.309-0.34c-0.023,0.021-0.063,0.047-0.134,0.079l0.191,0.419l-0.18-0.424
			c-0.13,0.055-0.314,0.099-0.541,0.099h-0.002h-0.001h-0.011c-0.588-0.005-1.444-0.303-2.145-1.495l0.001,0
			c-0.211-0.363-0.388-0.628-0.532-0.82l-0.002-0.002v-0.001c-0.05-0.063-0.096-0.111-0.14-0.152l-0.065-0.058l-0.048-0.035
			l-0.054-0.031l-0.061-0.025c-0.03-0.009-0.069-0.022-0.146-0.024c-0.037,0-0.084,0.004-0.142,0.022
			c-0.085,0.024-0.194,0.1-0.251,0.197c-0.059,0.097-0.068,0.185-0.068,0.241c0,0.077,0.005,0.139,0.008,0.175l0.008,0.087
			l0.039,0.079c0.066,0.135,0.279,0.568,0.51,1.104c0.23,0.534,0.479,1.174,0.613,1.694v-0.001c0.153,0.582,0.211,1.172,0.479,1.74
			l0.001,0.002l-0.001,0c0.131,0.269,0.314,0.542,0.588,0.778c0.273,0.238,0.626,0.437,1.086,0.603l0,0
			c0.359,0.129,0.876,0.235,1.511,0.35l0,0c0.632,0.113,1.372,0.232,2.156,0.375H45.5l0,0c1.568,0.283,3.309,0.67,4.671,1.295H50.17
			c0.911,0.418,1.641,0.938,2.053,1.59l0,0c0.574,0.903,0.934,1.455,1.162,1.795V27.61c0.101,0.15,0.178,0.259,0.236,0.337
			l0.077,0.098l0.065,0.073l0.015,0.016l0.22,0.182l0.059,0.048l0.07,0.027c0.132,0.048,0.212,0.038,0.248,0.041h0.016h0.014h0.002
			l0.01-0.14l-0.037,0.135l0.027,0.005l0.01-0.14l-0.037,0.135l0.123-0.443l-0.135,0.44c0.203,0.059,0.364,0.093,0.466,0.146h0.001
			l0.001,0.001c0.115,0.058,0.132,0.071,0.158,0.106l0.374-0.269l-0.381,0.259l0.01,0.018v0.005v0.004v0.001l-0.001,0.002
			l-0.033,0.043l-0.003,0.002l-0.004,0.002L55.194,29.137l0.232,0.397c0.143-0.084,0.257-0.199,0.345-0.339
			c0.086-0.14,0.145-0.311,0.145-0.5v-0.021l-0.46,0.01h0.46c0-0.215-0.076-0.4-0.169-0.536l-0.003-0.005l-0.004-0.004
			c-0.162-0.228-0.379-0.336-0.499-0.394l0.002,0c-0.255-0.124-0.481-0.161-0.606-0.202l-0.007-0.002l-0.006-0.002
			c-0.106-0.029-0.192-0.027-0.233-0.028h-0.016h-0.01l-0.008,0.278l0.099-0.257c-0.062-0.023-0.091-0.02-0.091-0.021l-0.008,0.278
			l0.099-0.257l-0.165,0.429l0.294-0.354l-0.203-0.168l-0.294,0.354l0.326-0.325l-0.166,0.166l0.172-0.159l-0.006-0.007
			l-0.166,0.166l0.172-0.159l-0.008,0.007l0.008-0.007l0,0l-0.008,0.007l0.008-0.007c-0.014-0.015-0.109-0.135-0.271-0.377
			l-0.001-0.001l0.001,0c-0.221-0.326-0.576-0.875-1.148-1.774v0c-0.56-0.875-1.449-1.473-2.445-1.932l0,0
			c-1.497-0.685-3.295-1.074-4.891-1.364l0,0c-0.796-0.146-1.54-0.266-2.159-0.376l0,0c-0.612-0.109-1.118-0.221-1.36-0.31l0,0
			c-0.383-0.138-0.626-0.285-0.794-0.432c-0.168-0.147-0.271-0.296-0.364-0.487v0.001c-0.178-0.355-0.252-0.912-0.416-1.569v0
			c-0.157-0.603-0.418-1.269-0.659-1.828c-0.24-0.558-0.46-1.006-0.53-1.148l-0.412,0.204l0.459-0.038l-0.006-0.101h-0.459
			l0.436,0.147c0.02-0.059,0.023-0.109,0.023-0.147h-0.459l0.436,0.147l-0.436-0.147l0.23,0.397c0.096-0.052,0.178-0.16,0.205-0.25
			l-0.436-0.147l0.23,0.397l-0.23-0.397v0.458c0.053,0,0.136-0.008,0.23-0.062l-0.23-0.397v0.458v-0.456l-0.144,0.434
			c0.028,0.008,0.067,0.021,0.144,0.022v-0.456l-0.144,0.434l0.14-0.42l-0.225,0.381c0.015,0.008,0.032,0.021,0.085,0.039l0.14-0.42
			l-0.225,0.381l0.144-0.244l-0.185,0.216c0.002,0-0.006,0,0.041,0.028l0.144-0.244l-0.185,0.216l0.053,0.056l-0.002-0.003
			c0.116,0.153,0.275,0.39,0.471,0.728l0,0c0.831,1.438,2.022,1.958,2.939,1.952h0.017h-0.003c0.343,0,0.646-0.064,0.9-0.172
			l0.006-0.002l0.006-0.003c0.117-0.054,0.247-0.124,0.369-0.235l0.007-0.006l0.006-0.006c0.046-0.045,0.116-0.118,0.178-0.226
			c0.062-0.106,0.107-0.25,0.111-0.402l0.001-0.008v-0.008v-0.003c-0.007-0.24-0.091-0.416-0.233-0.57l-0.328,0.323l0.338-0.312
			c-0.069-0.075-0.146-0.145-0.241-0.225l-0.002-0.002c-0.316-0.264-0.893-0.709-1.555-1.21c-0.661-0.501-1.403-1.055-2.035-1.523
			l0,0c-0.642-0.477-1.008-0.944-1.216-1.272l0.002,0.003c-0.095-0.153-0.157-0.299-0.199-0.396l-0.423,0.179l0.426-0.173
			l-0.172,0.07l0.178-0.055l-0.006-0.015l-0.172,0.07l0.178-0.055l-0.014-0.054l-0.016-0.063c-0.005-0.017-0.01-0.035-0.03-0.078
			c-0.011-0.023-0.024-0.053-0.067-0.104c-0.023-0.026-0.055-0.059-0.11-0.093c-0.054-0.033-0.14-0.067-0.239-0.067h-0.007v0.46
			l0.455-0.071c-0.05-0.309-0.172-0.583-0.328-0.813c-0.158-0.229-0.348-0.416-0.567-0.546l0.004,0.002
			c-0.152-0.094-0.324-0.124-0.445-0.122c-0.078,0-0.141,0.009-0.18,0.014l-0.043,0.005l-0.006,0.001l0.007,0.103v-0.103l-0.007,0
			l0.007,0.103v-0.103v0.25l0.042-0.246l-0.042-0.003v0.25l0.042-0.246l-0.076,0.454l0.34-0.31
			c-0.486-0.534-1.037-0.906-1.594-1.178c-0.557-0.273-1.119-0.451-1.646-0.604h0.001c-0.439-0.128-0.863-0.168-1.248-0.168
			c-0.336,0-0.645,0.03-0.911,0.059c-0.265,0.028-0.491,0.053-0.646,0.053c-0.34,0-1.354,0-1.693,0
			c-0.155,0.001-0.395-0.031-0.68-0.068c-0.284-0.037-0.617-0.076-0.98-0.076c-0.356,0-0.744,0.038-1.145,0.155h0.001
			c-0.511,0.148-1.067,0.296-1.626,0.54c-0.558,0.243-1.119,0.591-1.61,1.131l0.34,0.31l-0.07-0.454
			c-0.184,0.029-0.391,0.102-0.622,0.232l0.003-0.001c-0.436,0.247-0.818,0.762-0.908,1.489l0.457,0.055l-0.439-0.137l-0.017,0.052
			c-0.067,0.187-0.38,0.96-1.431,1.739l-0.001,0.001v0c-0.74,0.551-1.609,1.3-2.314,1.835l-0.001,0.001l-0.001,0.001
			c-0.191,0.147-0.585,0.472-0.948,0.815c-0.182,0.171-0.354,0.345-0.493,0.512c-0.07,0.084-0.132,0.166-0.186,0.258
			c-0.051,0.094-0.109,0.189-0.115,0.378c0,0.042,0.004,0.089,0.017,0.138v0c0.024,0.094,0.072,0.18,0.127,0.244
			c0.098,0.113,0.202,0.167,0.295,0.206c0.14,0.055,0.269,0.076,0.396,0.09c0.126,0.013,0.25,0.017,0.363,0.017
			c0.18,0,0.346-0.01,0.392-0.009h-0.003h0.017c0.918,0.005,2.106-0.518,2.937-1.951v-0.001c0.256-0.441,0.45-0.712,0.563-0.842
			l-0.348-0.3l-0.445,0.119l0.033,0.124l0.445-0.118l-0.457-0.054l-0.001,0.007l0.456,0.054l-0.412-0.203
			c-0.068,0.139-0.288,0.587-0.529,1.145c-0.24,0.56-0.503,1.227-0.66,1.829v0.001v0c-0.164,0.659-0.238,1.212-0.416,1.569v0
			c-0.094,0.192-0.196,0.342-0.363,0.49c-0.168,0.146-0.411,0.293-0.794,0.432l-0.001,0c-0.16,0.059-0.439,0.129-0.787,0.201
			c-0.348,0.072-0.767,0.146-1.228,0.225h0.001c-1.393,0.235-3.174,0.53-4.813,1.04l0,0c-0.818,0.256-1.607,0.566-2.301,0.972
			s-1.297,0.911-1.716,1.562v0.001l-0.001,0.001c-0.439,0.692-0.749,1.184-0.969,1.526c-0.217,0.341-0.35,0.538-0.406,0.611
			l0.363,0.282l-0.361-0.286L5.85,27.519c-0.027,0.038-0.07,0.097-0.107,0.141l-0.037,0.039l0.168,0.192l-0.067-0.24
			c-0.095,0.031-0.099,0.051-0.101,0.048l0.168,0.192l-0.067-0.24l-0.003,0.001l-0.004,0.001l0.047,0.156l-0.019-0.162l-0.028,0.006
			l0.047,0.156l-0.019-0.162l0.002,0.016l-0.001-0.016H5.827l0.002,0.016l-0.001-0.016H5.821c-0.039,0.003-0.174-0.021-0.352-0.024
			c-0.109,0.001-0.248,0.011-0.401,0.083l0.198,0.415l-0.192-0.418c-0.164,0.074-0.287,0.184-0.377,0.271l-0.001,0.001l-0.001,0.001
			c-0.117,0.113-0.18,0.255-0.207,0.371c-0.029,0.119-0.032,0.221-0.033,0.314v0.021l0.461-0.004l-0.46-0.017l-0.001,0.022
			c0,0.149,0.048,0.273,0.102,0.367c0.082,0.142,0.18,0.234,0.271,0.31c0.091,0.076,0.179,0.131,0.249,0.173l0.232-0.397
			L5.069,29.53c0.144,0.083,0.248,0.102,0.362,0.127c0.113,0.022,0.226,0.036,0.331,0.046H5.762l0.035-0.385l-0.171,0.347
			c0.033,0.016,0.071,0.032,0.136,0.039l0.035-0.385l-0.171,0.347l0.157-0.319L5.499,29.56c0.04,0.051,0.077,0.08,0.127,0.105
			l0.157-0.319L5.499,29.56l0.304-0.228H5.424c0,0.096,0.037,0.178,0.075,0.228l0.304-0.228H5.424h0.37l-0.328-0.174
			c-0.024,0.044-0.043,0.108-0.042,0.174h0.37l-0.328-0.174l-0.008,0.016l0.008-0.016c-0.034,0.065-0.09,0.166-0.142,0.278
			c-0.026,0.057-0.051,0.117-0.073,0.185c-0.021,0.069-0.042,0.144-0.043,0.253c0,0.055,0.006,0.121,0.032,0.197
			c0.026,0.075,0.078,0.162,0.154,0.227l0.301-0.348l-0.305,0.345c0.225,0.197,0.514,0.296,0.805,0.295h0.016l-0.006-0.46v0.46
			c0.16,0,0.324-0.024,0.488-0.076l-0.136-0.439l-0.299,0.35l0.067,0.057l0.298-0.35l-0.458-0.034l-0.004,0.048L6.16,30.163v0.018
			c0.004,0.149,0.019,0.335,0.14,0.546l0.003,0.006L6.3,30.726c0.078,0.125,0.152,0.194,0.216,0.256
			c0.063,0.059,0.11,0.098,0.116,0.103l-0.001-0.001c0.008,0.006,0.062,0.05,0.143,0.102c0.04,0.026,0.087,0.054,0.147,0.081
			c0.063,0.026,0.134,0.06,0.271,0.063c0.071,0,0.118-0.009,0.169-0.019c0.172-0.035,0.367-0.103,0.57-0.203
			c0.1-0.051,0.199-0.109,0.295-0.187c0.095-0.079,0.197-0.173,0.267-0.349l0.002-0.004l-0.002,0.004l0.019-0.039L8.467,30.5
			l0.036,0.042l0.009-0.009L8.467,30.5l0.036,0.042l-0.121-0.141v0.181c0.05,0.001,0.099-0.02,0.121-0.04l-0.121-0.141v0.181h0.003
			h0.002h0.001c0.021-0.001,0.11,0.007,0.206,0.022c0.098,0.015,0.207,0.035,0.303,0.054v0l0,0c0.065,0.013,0.123,0.025,0.168,0.034
			c0.047,0.01,0.068,0.015,0.097,0.021l0.082-0.453l-0.437-0.146c-0.094,0.283-0.201,0.693-0.203,1.16v0.001
			c0,0.335,0.059,0.727,0.278,1.094l-0.001-0.001c0.224,0.379,0.607,0.678,1.094,0.821l0.002,0H9.976
			c0.304,0.088,0.609,0.13,0.91,0.13h0.001h0.001c1.536-0.01,2.894-1.063,3.326-2.518l-0.441-0.129l0.113,0.445
			c0.329-0.083,1.081-0.289,1.929-0.627v0c0.563-0.224,1.169-0.508,1.725-0.864l0,0c0.555-0.354,1.075-0.787,1.433-1.354
			l0.008-0.012l-0.008,0.012c0.234-0.374,0.448-0.623,0.593-0.75l0.002-0.002l0.003-0.003c0.088-0.079,0.142-0.102,0.15-0.105
			l-0.161-0.431l-0.458-0.048l-0.474,4.451v0.025v0.008c0.002,0.108-0.029,0.418-0.061,0.764l-0.001,0.006l0.001-0.006
			c-0.033,0.361-0.066,0.788-0.066,1.223v0.001c0.002,0.463,0.034,0.943,0.185,1.4l0,0c0.168,0.503,0.253,0.987,0.253,1.499
			c0,0.494-0.079,1.014-0.258,1.6l0.001-0.001c-0.194,0.635-0.42,1.573-0.649,2.585c-0.229,1.011-0.459,2.092-0.656,2.99
			l0.449,0.099l0.281-0.364c-0.108-0.084-0.246-0.183-0.417-0.265c-0.172-0.082-0.382-0.146-0.618-0.15h-0.005h-0.005
			c-0.297-0.001-0.602,0.115-0.841,0.343l0.002-0.001c-0.14,0.131-0.234,0.285-0.299,0.432c-0.065,0.146-0.106,0.288-0.144,0.423
			L15.777,44l-0.001,0.004c-0.076,0.304-0.075,0.595-0.076,0.875c0,0.044,0,0.089,0,0.133v0.003v0.002
			c0.001,0.5,0.033,1.084,0.269,1.649l-0.001-0.002c0.18,0.437,0.446,0.899,0.925,1.222l0.257-0.382l-0.441-0.131l-0.106,0.361
			l0.441,0.13l-0.424-0.178l-0.028,0.074c-0.03,0.081-0.077,0.214-0.127,0.352l-0.001,0.002v0.001
			c-0.086,0.251-0.181,0.582-0.189,0.915v0.003v0.004c0,0.04,0.002,0.105,0.006,0.18l0.01,0.115
			c0.005,0.041,0.009,0.078,0.025,0.143l0.002,0.006l0.002,0.006c0.032,0.097,0.062,0.13,0.085,0.165
			c0.041,0.055,0.075,0.09,0.112,0.127c0.055,0.054,0.111,0.103,0.166,0.146l0.085,0.062l0.054,0.033
			c0.023,0.013,0.046,0.027,0.113,0.048l0.016,0.005l0.018,0.003c0.062,0.012,0.095,0.012,0.128,0.013
			c0.117-0.002,0.221-0.018,0.36-0.037c0.202-0.03,0.45-0.072,0.678-0.107c0.223-0.036,0.438-0.061,0.504-0.059
			c0.697,0,1.488-0.013,2.106-0.027c0.31-0.007,0.575-0.014,0.764-0.019c0.095-0.002,0.169-0.004,0.222-0.006l0.059-0.001l0.016,0
			h0.004l0,0L21.8,49.58l0.007,0.252l0,0L21.8,49.58l0.007,0.252L21.795,49.4l0.011,0.432h0.001L21.795,49.4l0.011,0.432
			l-0.012-0.459v0.459h0.012l-0.012-0.459v0.459h0.008l0.175-0.006l0.274-0.009l0.196-0.395l-0.411-0.206l0.409,0.21
			c0,0,0.011-0.021,0.034-0.065c0.023-0.045,0.06-0.112,0.106-0.201l0.002-0.001l-0.001,0c0.283-0.532,0.991-1.811,2.055-3.404l0,0
			c0.706-1.061,1.61-2.296,2.434-3.252c0.409-0.475,0.801-0.881,1.114-1.147v0c0.158-0.135,0.295-0.233,0.379-0.278l0.007-0.003
			l0.007-0.004c0.042-0.025,0.074-0.039,0.089-0.044l0.007-0.002l-0.057-0.194v0.2c0.052-0.001,0.057-0.006,0.057-0.005
			l-0.057-0.194v0.2h0.018l0.017-0.001c0.048-0.003,0.085-0.004,0.146-0.004c0.264-0.002,0.688,0.066,1.162,0.068
			c0.059,0,0.117-0.001,0.177-0.004c0.498-0.021,0.96-0.064,1.283-0.064c0.055,0,0.104,0.001,0.151,0.004l0.018,0.001h0.017v-0.219
			l-0.042,0.215l0.042,0.003v-0.219l-0.042,0.215l0.005,0.001c0.015,0.004,0.053,0.019,0.099,0.044l0.002,0.001l0.001,0
			c0.163,0.086,0.449,0.311,0.766,0.618c0.319,0.307,0.681,0.698,1.044,1.13v0c0.732,0.866,1.501,1.909,2.115,2.831v0.001
			c0.708,1.059,1.259,1.994,1.631,2.661c0.185,0.332,0.325,0.601,0.421,0.785c0.047,0.091,0.082,0.16,0.105,0.207l0.026,0.053
			l0.007,0.016l0.415-0.199l-0.42,0.188l0.073,0.165l0.099,0.222l0.407,0.074l0.041,0.008h0.042v-0.46l-0.023,0.459l0.023,0.001
			v-0.46l-0.023,0.459l0.02-0.39l-0.022,0.39h0.003l0.02-0.39l-0.022,0.39c0.042,0.002,2.027,0.122,3.442,0.122
			c0.133,0,0.47,0.028,0.751,0.058c0.284,0.03,0.524,0.06,0.526,0.06l0.111,0.014l0.106-0.04c0.079-0.033,0.092-0.047,0.118-0.063
			c0.072-0.05,0.137-0.104,0.209-0.171l0.107-0.109l0.058-0.074c0.021-0.033,0.047-0.067,0.074-0.153l0.001,0
			c0.015-0.056,0.018-0.081,0.021-0.11c0.011-0.092,0.014-0.186,0.018-0.278c0.002-0.089,0.004-0.175,0.004-0.188l0.001-0.011
			v-0.011c-0.008-0.341-0.114-0.624-0.19-0.845v-0.002l-0.002-0.003c-0.07-0.191-0.136-0.34-0.156-0.386l-0.421,0.186l0.439-0.136
			l-0.106-0.343l-0.439,0.136l0.257,0.382c0.458-0.308,0.772-0.745,0.966-1.208v0c0.227-0.541,0.31-1.115,0.313-1.64v-0.002
			c0-0.361-0.041-0.704-0.122-1.012l-0.001-0.002v-0.002c-0.08-0.29-0.196-0.604-0.465-0.857l0.002,0.002
			c-0.243-0.23-0.546-0.339-0.84-0.34h-0.018c-0.237,0.003-0.448,0.066-0.621,0.147s-0.312,0.18-0.422,0.265l0.28,0.365l0.449-0.099
			c-0.196-0.897-0.429-1.979-0.657-2.99c-0.23-1.013-0.457-1.952-0.651-2.587l0.001,0c-0.178-0.584-0.259-1.104-0.259-1.597
			c0-0.511,0.085-0.995,0.254-1.498l0.001-0.002v-0.001c0.147-0.455,0.18-0.935,0.182-1.397v-0.001c0-0.435-0.033-0.861-0.066-1.224
			v0.001c-0.032-0.352-0.062-0.667-0.061-0.774v-0.024l-0.473-4.449l-0.458,0.049l-0.161,0.431c0.01,0.003,0.061,0.024,0.149,0.104
			l0.002,0.002l0.003,0.002c0.145,0.127,0.358,0.376,0.592,0.75l0.001,0c0.358,0.566,0.878,0.998,1.433,1.353l0,0
			c1.396,0.888,3.111,1.351,3.654,1.491l0.113-0.446l-0.441,0.129c0.429,1.456,1.789,2.508,3.324,2.519h0.001h0.001
			c0.302,0,0.607-0.042,0.91-0.13l0.002,0l0,0c0.487-0.143,0.869-0.441,1.094-0.816v-0.001c0.22-0.369,0.278-0.76,0.278-1.096
			v-0.003v0.001c-0.003-0.466-0.109-0.875-0.204-1.16l-0.436,0.146l0.075,0.454c0.043-0.008,0.086-0.015,0.139-0.022l0.006-0.001
			l0.006-0.001c0.283-0.054,0.498-0.111,0.624-0.107h0.006h0.003h0.002c0.047,0,0.086,0.005,0.131,0.018l0.122-0.443l-0.334,0.315
			c0.021,0.022,0.061,0.065,0.117,0.122l-0.004-0.003c0.096,0.1,0.226,0.213,0.393,0.321l0,0l0.001,0.001
			c0.245,0.157,0.511,0.232,0.764,0.232c0.146,0,0.3-0.024,0.45-0.087l0.002-0.001l0.002-0.001c0.121-0.049,0.318-0.168,0.438-0.375
			l0.003-0.004l0.002-0.004c0.102-0.176,0.135-0.362,0.134-0.517h-0.46l0.358,0.289l0.072-0.091l-0.357-0.288l-0.141,0.438
			c0.155,0.049,0.316,0.08,0.482,0.08v-0.46l-0.005,0.46h0.016c0.287,0,0.579-0.092,0.807-0.296l-0.307-0.342l0.3,0.349
			c0.235-0.204,0.374-0.497,0.375-0.813V29.48v-0.016l-0.005-0.069l-0.002-0.025l-0.021-0.115l-0.452,0.082l0.343,0.306l0.074-0.083
			l-0.344-0.306l0.039,0.458c0.188-0.016,0.392-0.066,0.581-0.182L55.194,29.137l0.232,0.397L55.194,29.137z"/>
		<path fill="#3B3B3B" d="M43.383,49.82c0.104-0.083,0.163-0.19,0.192-0.28c0.03-0.091,0.037-0.171,0.038-0.245
			c-0.002-0.15-0.032-0.281-0.074-0.411c-0.064-0.194-0.158-0.381-0.283-0.55c-0.063-0.084-0.134-0.164-0.227-0.237
			c-0.092-0.07-0.212-0.143-0.384-0.16h-0.001l0,0c-0.059-0.005-0.132-0.011-0.216-0.011c-0.212,0.001-0.51,0.03-0.793,0.231
			c-0.139,0.1-0.265,0.243-0.351,0.418c-0.086,0.175-0.137,0.376-0.152,0.603l0.459,0.032l0.46,0.009v-0.021
			c-0.001-0.083-0.002-0.371-0.103-0.696c-0.052-0.162-0.129-0.341-0.281-0.504c-0.147-0.165-0.401-0.294-0.67-0.289
			c-0.192,0-0.375,0.053-0.525,0.135c-0.228,0.124-0.39,0.301-0.517,0.483c-0.127,0.183-0.219,0.375-0.286,0.557h-0.001l0.317,0.118
			l-0.24-0.233c-0.058,0.061-0.07,0.101-0.077,0.115l0.317,0.118l-0.24-0.233l0.3,0.291l-0.174-0.38
			c-0.056,0.025-0.099,0.059-0.126,0.089l0.3,0.291l-0.174-0.38l0.179,0.391v-0.431c-0.059,0-0.125,0.014-0.179,0.04l0.179,0.391
			v-0.431v0.42l0.201-0.37c-0.038-0.021-0.105-0.05-0.201-0.05v0.42l0.201-0.37l-0.164,0.304l0.236-0.253
			c-0.001,0.001-0.015-0.018-0.072-0.051l-0.164,0.304l0.236-0.253l-0.03-0.026l-0.065-0.046c-0.037-0.019-0.096-0.059-0.232-0.063
			c-0.064,0-0.146,0.016-0.219,0.055c-0.111,0.06-0.176,0.156-0.204,0.22c-0.028,0.066-0.033,0.111-0.037,0.144l0.458,0.046
			l0.456-0.052c-0.005-0.031-0.031-0.298-0.188-0.608c-0.079-0.155-0.195-0.326-0.378-0.466c-0.181-0.141-0.435-0.237-0.71-0.235
			c-0.324-0.002-0.6,0.157-0.773,0.338c-0.268,0.276-0.394,0.602-0.48,0.864c-0.084,0.262-0.114,0.464-0.117,0.479l0.91,0.139
			l-0.031-0.004l0.031,0.005v0l-0.031-0.004l0.031,0.005c0.002-0.016,0.055-0.31,0.167-0.557c0.054-0.123,0.124-0.23,0.181-0.284
			c0.061-0.055,0.078-0.058,0.113-0.06c0.082,0.002,0.11,0.018,0.151,0.046c0.058,0.041,0.127,0.151,0.164,0.263
			c0.02,0.055,0.032,0.106,0.039,0.142l0.008,0.039l0.001,0.007l0.158-0.021l-0.158,0.018v0.003l0.158-0.021l-0.158,0.018
			l0.914-0.006l-0.452-0.045l0.376,0.255c0.066-0.104,0.07-0.169,0.076-0.21l-0.452-0.045l0.376,0.255l-0.379-0.257l0.217,0.404
			c0.072-0.039,0.129-0.096,0.162-0.146l-0.379-0.257l0.217,0.404l-0.217-0.404v0.458c0.063,0.001,0.145-0.015,0.217-0.054
			l-0.217-0.404v0.458v-0.456l-0.184,0.418c0.038,0.016,0.093,0.037,0.184,0.038v-0.456l-0.184,0.418l0.178-0.406l-0.279,0.344
			c0.016,0.011,0.034,0.03,0.102,0.062l0.178-0.406l-0.279,0.344l0.235-0.29l-0.253,0.274l0.018,0.016l0.235-0.29l-0.253,0.274
			l0.062-0.066l-0.063,0.066l0.001,0l0.062-0.066l-0.063,0.066c0.005,0.003,0.026,0.027,0.075,0.061
			c0.048,0.031,0.136,0.086,0.283,0.089c0.066,0,0.142-0.016,0.204-0.045c0.097-0.044,0.16-0.11,0.199-0.164
			c0.04-0.055,0.062-0.103,0.077-0.146v0c0.061-0.164,0.156-0.339,0.252-0.445c0.047-0.054,0.092-0.089,0.127-0.107l0.088-0.024
			h0.006l0.006-0.025l-0.015,0.021l0.009,0.004l0.006-0.025l-0.015,0.021l0.011,0.012c0.029,0.03,0.082,0.159,0.102,0.288
			c0.022,0.128,0.025,0.25,0.024,0.273v0.005l0.123,0.001l-0.123-0.002v0.001l0.123,0.001l-0.123-0.002l0.919,0.042
			c0.01-0.132,0.035-0.213,0.059-0.26c0.038-0.069,0.059-0.08,0.106-0.104c0.046-0.021,0.126-0.035,0.213-0.034
			c0.045,0,0.09,0.003,0.134,0.007h-0.001l0.021-0.22l-0.111,0.194c0.011,0.006,0.039,0.021,0.091,0.026l0.021-0.22l-0.111,0.194
			l0.029-0.051l-0.035,0.047l0.006,0.004l0.029-0.051l-0.035,0.047c0.009,0,0.096,0.104,0.146,0.217
			c0.058,0.11,0.086,0.246,0.082,0.255h0.149l-0.14-0.047l-0.01,0.047h0.149l-0.14-0.047l0.302,0.101l-0.197-0.247
			c-0.063,0.05-0.094,0.112-0.104,0.146l0.302,0.101l-0.197-0.247L43.383,49.82z"/>
		<path fill="#3B3B3B" d="M22.185,49.819c0.103-0.083,0.161-0.19,0.19-0.28c0.03-0.091,0.037-0.17,0.037-0.243
			c0-0.15-0.031-0.281-0.072-0.411c-0.065-0.194-0.159-0.382-0.283-0.551c-0.063-0.084-0.135-0.164-0.227-0.237
			c-0.093-0.07-0.213-0.143-0.385-0.16h-0.001h-0.001c-0.058-0.005-0.131-0.011-0.215-0.011c-0.195,0.001-0.457,0.025-0.719,0.182
			c-0.13,0.078-0.254,0.192-0.35,0.337s-0.162,0.315-0.198,0.505l-0.003,0.019l-0.002,0.003l0.308,0.072l-0.294-0.111l-0.014,0.04
			l0.308,0.072l-0.294-0.111l0.407,0.154l-0.36-0.245c-0.033,0.051-0.04,0.074-0.047,0.091l0.407,0.154l-0.36-0.245l0.376,0.256
			l-0.278-0.359c-0.055,0.043-0.079,0.078-0.098,0.104l0.376,0.256l-0.278-0.359l0.28,0.363v-0.458c-0.128,0-0.228,0.054-0.28,0.095
			l0.28,0.363v-0.458v0.458l0.325-0.323c-0.051-0.055-0.172-0.137-0.325-0.135v0.458l0.325-0.323l-0.318,0.315l0.428-0.138
			c-0.015-0.029-0.017-0.075-0.109-0.177l-0.318,0.315l0.428-0.138l-0.343,0.111l0.356-0.05c-0.001-0.007-0.001-0.018-0.014-0.061
			l-0.343,0.111l0.356-0.05l-0.087,0.012l0.087-0.009v-0.003l-0.087,0.012l0.087-0.009v-0.006v0
			c-0.016-0.177-0.046-0.438-0.172-0.709c-0.064-0.135-0.156-0.278-0.305-0.397c-0.146-0.12-0.356-0.199-0.57-0.196
			c-0.2-0.001-0.39,0.058-0.543,0.146c-0.232,0.133-0.396,0.32-0.522,0.51c-0.126,0.191-0.216,0.39-0.281,0.574l0.434,0.153
			l0.108-0.447L18.9,48.624l-0.107,0.447l0.457-0.052c-0.006-0.031-0.031-0.297-0.188-0.608c-0.079-0.155-0.195-0.326-0.378-0.466
			c-0.182-0.141-0.435-0.237-0.711-0.235c-0.323-0.002-0.599,0.157-0.773,0.338c-0.266,0.276-0.393,0.602-0.479,0.864
			c-0.084,0.262-0.114,0.463-0.117,0.479l0.909,0.14l-0.031-0.004l0.031,0.005v0l-0.031-0.004l0.031,0.005
			c0.001-0.016,0.055-0.311,0.167-0.558c0.055-0.123,0.124-0.23,0.182-0.284c0.061-0.055,0.078-0.058,0.112-0.06
			c0.083,0.002,0.111,0.018,0.151,0.046c0.059,0.041,0.128,0.151,0.165,0.262c0.02,0.055,0.031,0.106,0.039,0.142l0.007,0.039
			l0.001,0.007l0.158-0.021l-0.158,0.018v0.003l0.158-0.021l-0.158,0.018l0.036,0.319l0.404,0.098l0.403,0.098l0.139-0.392
			c0.058-0.167,0.154-0.355,0.254-0.471c0.05-0.059,0.098-0.098,0.135-0.119l0.09-0.026l0.007,0l0.004-0.024l-0.011,0.021
			l0.007,0.003l0.004-0.024l-0.011,0.021v0l-0.001,0.001l0.001,0v0l-0.001,0.001c0.009,0.005,0.053,0.069,0.08,0.165
			c0.028,0.094,0.044,0.209,0.051,0.292l0,0c0.003,0.029,0.004,0.054,0.013,0.098c0.006,0.024,0.009,0.05,0.037,0.111
			c0.014,0.03,0.034,0.072,0.091,0.131c0.052,0.057,0.175,0.139,0.328,0.138c0.114,0,0.208-0.043,0.263-0.082
			c0.104-0.076,0.123-0.127,0.144-0.16c0.03-0.057,0.034-0.079,0.042-0.1c0.015-0.054,0.018-0.075,0.022-0.098
			c0.017-0.09,0.042-0.141,0.062-0.171c0.031-0.043,0.052-0.058,0.101-0.078c0.047-0.018,0.12-0.029,0.2-0.029
			c0.045,0,0.09,0.003,0.135,0.007h-0.002l0.02-0.22l-0.11,0.193c0.011,0.006,0.039,0.021,0.091,0.026l0.02-0.22l-0.11,0.193
			l0.028-0.05l-0.034,0.047l0.006,0.003l0.028-0.05l-0.034,0.047c0.009,0,0.096,0.104,0.147,0.217
			c0.057,0.111,0.085,0.247,0.08,0.256h0.15l-0.141-0.047l-0.01,0.047h0.15l-0.141-0.047l0.304,0.101l-0.199-0.247
			c-0.063,0.051-0.093,0.112-0.104,0.146l0.304,0.101l-0.199-0.247L22.185,49.819z"/>
		<path fill="#3B3B3B" d="M30.104,12.311l0.041-0.458c-0.009,0-0.234-0.021-0.525-0.021c-0.245,0.001-0.529,0.011-0.802,0.074
			c-0.137,0.034-0.273,0.076-0.416,0.175c-0.071,0.05-0.145,0.118-0.203,0.213c-0.058,0.095-0.094,0.218-0.093,0.335v0.032V12.66
			c0.006,0.114,0.033,0.232,0.087,0.338c0.093,0.189,0.253,0.316,0.405,0.39c0.231,0.111,0.465,0.145,0.715,0.167
			c0.249,0.021,0.516,0.021,0.791,0.021c0.113,0,0.228,0.001,0.342,0.001c0.355-0.002,0.693-0.002,1.008-0.074
			c0.158-0.038,0.319-0.093,0.474-0.223c0.076-0.065,0.146-0.152,0.194-0.255c0.047-0.102,0.069-0.215,0.068-0.321
			c0.001-0.122-0.033-0.251-0.095-0.354c-0.11-0.183-0.264-0.275-0.399-0.336c-0.208-0.089-0.416-0.121-0.627-0.143
			c-0.21-0.02-0.421-0.023-0.606-0.024c-0.14,0-0.265,0.002-0.358,0.002V12.311l0.041-0.458L30.104,12.311v0.46
			c0.106,0,0.229-0.002,0.358-0.002c0.261,0,0.56,0.011,0.741,0.053c0.045,0.009,0.082,0.02,0.106,0.03l0.032,0.015l0.001-0.001
			l-0.001,0.001l0,0l0.001-0.001l-0.001,0.001l0.094-0.128l-0.135,0.078l0.041,0.05l0.094-0.128l-0.135,0.078l0.191-0.111H31.27
			l0.031,0.111l0.191-0.111H31.27h0.156l-0.141-0.064l-0.016,0.064h0.156l-0.141-0.064l0.156,0.071l-0.119-0.125l-0.037,0.053
			l0.156,0.071l-0.119-0.125l0.064,0.068l-0.054-0.076l-0.011,0.008l0.064,0.068l-0.054-0.076l0.003,0.004l-0.003-0.004l0,0
			l0.003,0.004l-0.003-0.004c-0.011,0.009-0.123,0.046-0.285,0.06c-0.162,0.016-0.373,0.02-0.603,0.02
			c-0.11,0-0.225-0.001-0.342-0.001c-0.412,0.002-0.776-0.008-0.974-0.054c-0.049-0.011-0.087-0.023-0.109-0.033l-0.028-0.015
			l-0.02,0.028l0.024-0.023l-0.005-0.005l-0.02,0.028l0.024-0.023l-0.082,0.078l0.104-0.043l-0.021-0.035l-0.082,0.078l0.104-0.043
			l-0.063,0.026l0.069-0.003l-0.007-0.023l-0.063,0.026l0.069-0.003v-0.002l-0.271,0.014h0.271v-0.014l-0.271,0.014h0.271H28.75
			l0.235,0.142c0.024-0.037,0.041-0.096,0.04-0.142H28.75l0.235,0.142l-0.177-0.107l0.127,0.166l0.05-0.058l-0.177-0.107
			l0.127,0.166l-0.043-0.056l0.036,0.061l0.007-0.005l-0.043-0.056l0.036,0.061c0,0,0.026-0.014,0.069-0.025
			c0.135-0.039,0.4-0.059,0.621-0.058c0.124,0,0.237,0.004,0.318,0.009l0.095,0.006l0.031,0.002l0.021,0.002h0.02V12.311z"/>
		<path fill="#3B3B3B" d="M37.701,14.797l0.229,0.399l0.105-0.067l0.079-0.07c0.018-0.02,0.04-0.045,0.066-0.09
			c0.024-0.045,0.06-0.116,0.061-0.231c0.004-0.1-0.042-0.227-0.111-0.302c-0.106-0.117-0.199-0.136-0.25-0.151
			c-0.055-0.012-0.087-0.012-0.112-0.012c-0.083,0.001-0.112,0.011-0.154,0.019c-0.139,0.03-0.326,0.087-0.582,0.163
			c-0.378,0.113-0.878,0.261-1.374,0.381c-0.491,0.119-0.985,0.206-1.3,0.204l-0.108-0.003l0,0c-0.474-0.029-1.128-0.31-1.828-0.612
			c-0.704-0.296-1.463-0.614-2.274-0.618c-0.753-0.001-1.356,0.175-1.944,0.385c-0.592,0.212-1.181,0.456-1.993,0.652h0.001
			c-0.193,0.047-0.393,0.067-0.597,0.067c-0.569,0.001-1.17-0.166-1.684-0.347c-0.257-0.09-0.492-0.182-0.701-0.256
			c-0.104-0.037-0.203-0.07-0.3-0.096c-0.099-0.025-0.192-0.046-0.313-0.047c-0.059,0-0.125,0.005-0.203,0.029
			c-0.077,0.023-0.168,0.071-0.241,0.148l-0.001,0.001c-0.074,0.073-0.146,0.214-0.144,0.355c0,0.086,0.022,0.161,0.048,0.218
			c0.054,0.111,0.113,0.166,0.165,0.212c0.098,0.082,0.188,0.13,0.294,0.181c0.182,0.085,0.401,0.164,0.652,0.241
			c0.375,0.115,0.813,0.221,1.237,0.301s0.829,0.134,1.161,0.135c0.082,0,0.162-0.003,0.239-0.013l0,0
			c0.869-0.101,2.283-0.369,2.288-0.37l-0.085-0.452l-0.282,0.363c0.02,0.015,0.269,0.207,0.683,0.4
			c0.414,0.193,0.997,0.39,1.683,0.39c1.342-0.006,2.327-0.649,2.366-0.669l-0.248-0.387l-0.191,0.418
			c0.032,0.012,1.023,0.472,2.231,0.476c0.209,0,0.424-0.014,0.642-0.048H34.91c0.684-0.107,1.355-0.288,1.895-0.461
			c0.27-0.087,0.506-0.171,0.695-0.245c0.191-0.076,0.323-0.132,0.431-0.193l0,0L37.701,14.797l-0.229-0.399
			c-0.018,0.011-0.143,0.07-0.309,0.134c-0.506,0.198-1.47,0.509-2.396,0.653h-0.001h0.001c-0.164,0.026-0.332,0.037-0.498,0.037
			c-0.482,0.001-0.954-0.098-1.3-0.198c-0.173-0.05-0.314-0.101-0.41-0.137c-0.048-0.019-0.085-0.034-0.108-0.043l-0.025-0.011
			L32.42,14.83l-0.228-0.104l-0.212,0.135l0.061,0.094l-0.06-0.095l-0.001,0l0.061,0.094l-0.06-0.095
			c-0.017,0.015-0.87,0.53-1.87,0.524c-0.505,0-0.964-0.15-1.293-0.304c-0.165-0.076-0.297-0.153-0.385-0.209
			c-0.045-0.028-0.077-0.051-0.099-0.066l-0.022-0.016l-0.003-0.003l-0.086,0.112l0.087-0.111l-0.001-0.001l-0.086,0.112
			l0.087-0.111l-0.164-0.127l-0.203,0.039c-0.002,0-0.352,0.066-0.807,0.145c-0.455,0.079-1.016,0.169-1.418,0.215l0,0
			c-0.031,0.003-0.077,0.006-0.133,0.006c-0.191,0-0.486-0.031-0.805-0.085c-0.479-0.081-1.019-0.212-1.42-0.341
			c-0.2-0.064-0.368-0.13-0.461-0.177l-0.052-0.028l-0.013-0.008l-0.128,0.167l0.169-0.125l-0.041-0.043l-0.128,0.167l0.169-0.125
			l-0.311,0.229h0.382c-0.001-0.12-0.048-0.195-0.071-0.229l-0.311,0.229h0.382h-0.403l0.293,0.279
			c0.053-0.049,0.113-0.165,0.11-0.279h-0.403l0.293,0.279v0l-0.255-0.243l0.105,0.337c0.04-0.012,0.1-0.041,0.149-0.094
			l-0.255-0.243l0.105,0.337l-0.071-0.227v0.24l0.071-0.013l-0.071-0.227v0.24v-0.073l-0.004,0.073h0.004v-0.073l-0.004,0.073
			l0.026,0.004c0.069,0.013,0.229,0.064,0.422,0.136c0.591,0.214,1.525,0.602,2.553,0.605c0.266,0,0.539-0.026,0.812-0.093h0.001
			c0.883-0.214,1.526-0.481,2.085-0.68c0.562-0.199,1.025-0.331,1.636-0.332c0.553-0.004,1.226,0.248,1.915,0.545
			c0.692,0.29,1.391,0.624,2.12,0.683h0.001c0.058,0.004,0.115,0.006,0.175,0.006c0.327,0,0.687-0.054,1.06-0.128
			c0.559-0.113,1.142-0.278,1.605-0.414c0.23-0.068,0.432-0.129,0.579-0.171c0.073-0.021,0.134-0.038,0.173-0.047l0.037-0.008h0.001
			l-0.045-0.282v0.285l0.045-0.003l-0.045-0.282v0.285v-0.431l-0.155,0.401c0.094,0.033,0.129,0.028,0.155,0.03v-0.431l-0.155,0.401
			l0.163-0.423l-0.343,0.296c0.066,0.077,0.135,0.109,0.18,0.127l0.163-0.423l-0.343,0.296l0.346-0.298h-0.457
			c-0.002,0.098,0.043,0.224,0.111,0.298l0.346-0.298h-0.457h0.453l-0.394-0.224c-0.022,0.042-0.058,0.11-0.06,0.224h0.453
			l-0.394-0.224l0.367,0.209l-0.282-0.315c-0.016,0.016-0.041,0.034-0.085,0.106l0.367,0.209l-0.282-0.315l0.159,0.178l-0.131-0.2
			l-0.028,0.022l0.159,0.178l-0.131-0.2l-0.022,0.014l-0.015,0.008l0.015-0.008L37.701,14.797z"/>
		<path fill="#3B3B3B" d="M23.53,11.674l-0.031-0.459c-0.045,0.004-0.34,0.025-0.681,0.237c-0.169,0.106-0.348,0.265-0.489,0.487
			c-0.142,0.222-0.244,0.503-0.281,0.838l-0.039,0.35l0.326,0.129c0.045,0.019,0.128,0.042,0.238,0.042
			c0.123,0.001,0.276-0.031,0.433-0.113c0.156-0.082,0.315-0.209,0.477-0.395l-0.001,0c0.468-0.535,0.507-1.029,0.509-1.1
			l0.018-0.51l-0.509,0.035L23.53,11.674l-0.46-0.016l0.194,0.007l-0.193-0.019l-0.001,0.012l0.194,0.007l-0.193-0.019
			c-0.002,0.007-0.022,0.24-0.283,0.54l-0.001,0c-0.102,0.118-0.174,0.165-0.207,0.183l-0.025,0.011l0.019,0.075v-0.077
			l-0.019,0.002l0.019,0.075v-0.077v0.278l0.102-0.255c-0.045-0.018-0.08-0.023-0.102-0.023v0.278l0.102-0.255l-0.17,0.428
			l0.458,0.051c0.023-0.212,0.08-0.348,0.142-0.445c0.093-0.144,0.208-0.215,0.31-0.258c0.051-0.021,0.096-0.033,0.124-0.039
			l0.029-0.005h0.001l-0.024-0.261l0.018,0.261h0.007l-0.024-0.261l0.018,0.261L23.53,11.674l-0.46-0.016L23.53,11.674z"/>
		<path fill="#3B3B3B" d="M36.677,11.674l-0.03,0.459l0.001,0c0.038,0.005,0.183,0.037,0.304,0.133
			c0.12,0.099,0.247,0.241,0.293,0.61l0.457-0.051l-0.418-0.19l0.34,0.154l-0.242-0.286c-0.055,0.047-0.078,0.09-0.098,0.132
			l0.34,0.154l-0.242-0.286l0.211,0.249v-0.329c-0.065-0.003-0.16,0.033-0.211,0.08l0.211,0.249v-0.329v0.216l0.063-0.208
			l-0.063-0.008v0.216l0.063-0.208l-0.023,0.079l0.03-0.077l-0.007-0.002l-0.023,0.079l0.03-0.077l-0.009-0.004
			c-0.022-0.013-0.081-0.053-0.165-0.136l-0.011-0.01l0.011,0.01c-0.155-0.151-0.247-0.326-0.298-0.463
			c-0.024-0.068-0.04-0.126-0.047-0.164l-0.008-0.04l-0.001,0L36.677,11.674l-0.03,0.459L36.677,11.674l-0.458,0.047
			c0.003,0.028,0.022,0.195,0.107,0.428c0.086,0.231,0.24,0.532,0.519,0.804l0.001,0c0.127,0.123,0.24,0.212,0.357,0.279
			c0.117,0.065,0.246,0.11,0.389,0.111c0.148,0.002,0.299-0.063,0.384-0.139c0.088-0.075,0.126-0.148,0.145-0.189l0.053-0.115
			l-0.014-0.126c-0.037-0.335-0.14-0.616-0.282-0.838c-0.213-0.334-0.506-0.519-0.733-0.611c-0.23-0.094-0.403-0.107-0.438-0.11
			l-0.544-0.035l0.057,0.542L36.677,11.674z"/>
	</g>
</g>
</svg>
