<?xml version="1.0" encoding="utf-8"?>
<!-- Generator: Adobe Illustrator 16.0.0, SVG Export Plug-In . SVG Version: 6.00 Build 0)  -->
<!DOCTYPE svg PUBLIC "-//W3C//DTD SVG 1.1//EN" "http://www.w3.org/Graphics/SVG/1.1/DTD/svg11.dtd">
<svg version="1.1" xmlns="http://www.w3.org/2000/svg" xmlns:xlink="http://www.w3.org/1999/xlink" x="0px" y="0px" width="60px"
	 height="60px" viewBox="0 0 60 60" enable-background="new 0 0 60 60" xml:space="preserve">
<g id="Layer_1" display="none">
	<g display="inline">
		<path fill="#A5CEEB" d="M30,14.366c-7.139,0-17.673,12.966-17.673,20.831c0,6.256,4.89,9.298,11.921,10.282
			c1.813,0.252,10.743,0.196,12.887-0.188c6.307-1.14,10.538-4.138,10.538-10.094C47.673,27.218,37.14,14.366,30,14.366z"/>
		<path fill="#A5CEEB" d="M30,14.366v-2.07c-1.207,0.001-2.393,0.27-3.545,0.708c-2.018,0.772-3.963,2.064-5.81,3.66
			c-2.765,2.398-5.298,5.496-7.195,8.737c-0.947,1.622-1.733,3.281-2.294,4.925c-0.558,1.645-0.896,3.277-0.899,4.871
			c-0.001,1.832,0.364,3.523,1.079,5.006c0.534,1.11,1.26,2.096,2.123,2.938c1.296,1.266,2.889,2.212,4.66,2.917
			c1.774,0.706,3.738,1.177,5.842,1.472l0.008,0.001l-0.006-0.001c0.276,0.039,0.566,0.062,0.911,0.084
			c1.024,0.062,2.507,0.09,4.141,0.09c1.603,0,3.333-0.028,4.844-0.086c0.756-0.029,1.456-0.066,2.066-0.111
			c0.614-0.047,1.122-0.098,1.575-0.178l0.006-0.001l-0.003,0.001c1.692-0.307,3.28-0.741,4.734-1.347
			c1.09-0.454,2.105-1.005,3.022-1.674c1.375-1,2.526-2.282,3.305-3.83c0.782-1.546,1.181-3.331,1.178-5.28
			c0-1.226-0.198-2.472-0.538-3.728c-0.597-2.195-1.626-4.427-2.93-6.581c-1.959-3.228-4.532-6.273-7.32-8.591
			c-1.397-1.157-2.849-2.133-4.34-2.842c-1.49-0.705-3.032-1.156-4.614-1.16V14.366v2.07c0.581-0.001,1.287,0.135,2.078,0.434
			c1.384,0.519,2.995,1.539,4.571,2.9c2.371,2.038,4.672,4.831,6.325,7.668c0.829,1.418,1.497,2.846,1.948,4.18
			c0.453,1.332,0.683,2.568,0.68,3.578c-0.001,1.246-0.218,2.252-0.587,3.103c-0.279,0.639-0.646,1.196-1.116,1.707
			c-0.702,0.765-1.645,1.426-2.845,1.975c-1.197,0.548-2.645,0.977-4.288,1.272h0.003c-0.186,0.034-0.617,0.084-1.152,0.123
			c-1.626,0.122-4.277,0.188-6.603,0.186c-1.054,0-2.044-0.012-2.848-0.037c-0.4-0.012-0.755-0.027-1.04-0.045
			c-0.283-0.018-0.505-0.038-0.594-0.051h0.002c-1.646-0.23-3.135-0.578-4.414-1.04c-0.961-0.346-1.803-0.754-2.515-1.217
			c-1.069-0.697-1.843-1.496-2.372-2.442c-0.527-0.949-0.834-2.074-0.837-3.533c-0.001-0.752,0.129-1.642,0.394-2.608
			c0.46-1.694,1.329-3.616,2.475-5.504c1.715-2.835,4.053-5.601,6.429-7.579c1.186-0.991,2.38-1.783,3.473-2.305
			c1.095-0.526,2.077-0.769,2.833-0.765V14.366z"/>
	</g>
</g>
<g id="Layer_2">
	<g>
		<path fill="#3B3B3B" d="M30,14.366v-0.46c-1.926,0.004-3.991,0.86-6.029,2.228c-3.056,2.055-6.06,5.287-8.32,8.766
			c-2.255,3.481-3.777,7.196-3.783,10.298c0,1.623,0.318,3.06,0.92,4.307c0.9,1.873,2.429,3.303,4.383,4.345
			c1.955,1.044,4.34,1.712,7.014,2.086h0.001c0.404,0.056,1.063,0.093,1.905,0.12c0.839,0.025,1.851,0.038,2.925,0.038
			c1.583,0,3.298-0.028,4.781-0.085c1.488-0.059,2.728-0.141,3.42-0.264h0.001c3.203-0.58,5.918-1.633,7.856-3.35
			c1.942-1.714,3.065-4.111,3.06-7.197c-0.002-2.096-0.685-4.448-1.802-6.817c-1.679-3.552-4.347-7.141-7.289-9.864
			c-1.473-1.361-3.014-2.506-4.544-3.317c-1.531-0.81-3.055-1.291-4.498-1.292V14.366v0.46c1.646-0.003,3.573,0.755,5.518,2.056
			c2.919,1.946,5.865,5.088,8.061,8.469c2.199,3.377,3.641,7.004,3.635,9.847c-0.007,2.87-0.999,4.949-2.75,6.509
			c-1.752,1.556-4.307,2.572-7.41,3.132h0.001c-0.585,0.107-1.828,0.195-3.293,0.251c-1.468,0.056-3.175,0.084-4.746,0.084
			c-1.066,0-2.071-0.013-2.897-0.038c-0.823-0.025-1.479-0.064-1.807-0.111h0.001c-3.467-0.483-6.371-1.479-8.375-3.068
			c-1.003-0.796-1.784-1.737-2.321-2.85c-0.535-1.113-0.828-2.404-0.828-3.908c-0.002-1.864,0.633-4.097,1.713-6.376
			c1.619-3.422,4.232-6.951,7.084-9.601c1.426-1.326,2.91-2.432,4.351-3.2c1.44-0.77,2.833-1.195,4.065-1.194V14.366z"/>
	</g>
</g>
</svg>
