<?xml version="1.0" encoding="utf-8"?>
<!-- Generator: Adobe Illustrator 16.0.0, SVG Export Plug-In . SVG Version: 6.00 Build 0)  -->
<!DOCTYPE svg PUBLIC "-//W3C//DTD SVG 1.1//EN" "http://www.w3.org/Graphics/SVG/1.1/DTD/svg11.dtd">
<svg version="1.1" xmlns="http://www.w3.org/2000/svg" xmlns:xlink="http://www.w3.org/1999/xlink" x="0px" y="0px" width="40px"
	 height="40px" viewBox="0 0 40 40" enable-background="new 0 0 40 40" xml:space="preserve">
<g id="Layer_1" display="none">
</g>
<g id="Layer_2">
	<circle opacity="0.8" fill="#FFAEAE" cx="20" cy="20" r="19"/>
	<g>
		<polygon fill="#3B3B3B" points="32.173,27.204 32.173,26.956 8.076,26.956 8.076,14.038 31.924,14.038 31.924,27.204 
			32.173,27.204 32.173,26.956 32.173,27.204 32.421,27.204 32.421,13.541 7.579,13.541 7.579,27.453 32.421,27.453 32.421,27.204 
					"/>
		<path fill="#3B3B3B" d="M23.785,20.381h-0.248c0,1.038-0.421,1.976-1.102,2.656c-0.68,0.68-1.618,1.1-2.655,1.101
			c-1.038,0-1.976-0.42-2.656-1.101s-1.101-1.618-1.101-2.656s0.42-1.976,1.101-2.656c0.681-0.68,1.618-1.1,2.656-1.101
			c1.037,0,1.976,0.42,2.655,1.101c0.681,0.681,1.102,1.618,1.102,2.656H23.785h0.248c0-2.35-1.904-4.253-4.253-4.253
			c-2.35,0-4.254,1.904-4.254,4.253c0,2.349,1.904,4.253,4.254,4.253c2.349,0,4.253-1.904,4.253-4.253H23.785z"/>
		<polygon fill="#3B3B3B" points="15.777,12.796 15.777,12.547 10.063,12.547 10.063,14.038 16.025,14.038 16.025,12.547 
			15.777,12.547 15.777,12.796 15.528,12.796 15.528,13.541 10.56,13.541 10.56,13.044 15.777,13.044 15.777,12.796 15.528,12.796 
					"/>
		<path fill="#3B3B3B" d="M24.854,20.381h-0.248c0,1.333-0.539,2.538-1.413,3.413c-0.874,0.873-2.08,1.413-3.412,1.413
			c-1.334,0-2.538-0.54-3.412-1.413c-0.874-0.875-1.414-2.079-1.414-3.413c0-1.333,0.54-2.538,1.414-3.413
			c0.874-0.874,2.078-1.413,3.412-1.413c1.332,0,2.538,0.54,3.412,1.413c0.874,0.875,1.413,2.079,1.413,3.413H24.854h0.249
			c0-2.94-2.384-5.322-5.322-5.323c-2.939,0-5.322,2.383-5.322,5.323c0,2.939,2.383,5.322,5.322,5.322
			c2.938,0,5.322-2.383,5.322-5.322H24.854z"/>
	</g>
</g>
</svg>
